<?xml version="1.0" encoding="utf-8" standalone="no"?>
<!DOCTYPE svg PUBLIC "-//W3C//DTD SVG 1.1//EN"
  "http://www.w3.org/Graphics/SVG/1.1/DTD/svg11.dtd">
<!-- Created with matplotlib (http://matplotlib.org/) -->
<svg height="756pt" version="1.1" viewBox="0 0 1332 756" width="1332pt" xmlns="http://www.w3.org/2000/svg" xmlns:xlink="http://www.w3.org/1999/xlink">
 <defs>
  <style type="text/css">
*{stroke-linecap:butt;stroke-linejoin:round;}
  </style>
 </defs>
 <g id="figure_1">
  <g id="patch_1">
   <path d="M 0 756 
L 1332 756 
L 1332 0 
L 0 0 
z
" style="fill:#ffffff;"/>
  </g>
  <g id="axes_1">
   <g id="patch_2">
    <path d="M 166.5 604.8 
L 865.8 604.8 
L 865.8 90.72 
L 166.5 90.72 
z
" style="fill:#ffffff;"/>
   </g>
   <g id="table_1">
    <g id="patch_3">
     <path d="M 935.73 184.968 
L 1182.541765 184.968 
L 1182.541765 116.424 
L 935.73 116.424 
z
" style="fill:#ffffff;stroke:#000000;stroke-linejoin:miter;"/>
    </g>
    <g id="text_1">
     <!-- TOOL -->
     <defs>
      <path d="M -0.296875 72.90625 
L 61.375 72.90625 
L 61.375 64.59375 
L 35.5 64.59375 
L 35.5 0 
L 25.59375 0 
L 25.59375 64.59375 
L -0.296875 64.59375 
z
" id="DejaVuSans-54"/>
      <path d="M 39.40625 66.21875 
Q 28.65625 66.21875 22.328125 58.203125 
Q 16.015625 50.203125 16.015625 36.375 
Q 16.015625 22.609375 22.328125 14.59375 
Q 28.65625 6.59375 39.40625 6.59375 
Q 50.140625 6.59375 56.421875 14.59375 
Q 62.703125 22.609375 62.703125 36.375 
Q 62.703125 50.203125 56.421875 58.203125 
Q 50.140625 66.21875 39.40625 66.21875 
z
M 39.40625 74.21875 
Q 54.734375 74.21875 63.90625 63.9375 
Q 73.09375 53.65625 73.09375 36.375 
Q 73.09375 19.140625 63.90625 8.859375 
Q 54.734375 -1.421875 39.40625 -1.421875 
Q 24.03125 -1.421875 14.8125 8.828125 
Q 5.609375 19.09375 5.609375 36.375 
Q 5.609375 53.65625 14.8125 63.9375 
Q 24.03125 74.21875 39.40625 74.21875 
z
" id="DejaVuSans-4f"/>
      <path d="M 9.8125 72.90625 
L 19.671875 72.90625 
L 19.671875 8.296875 
L 55.171875 8.296875 
L 55.171875 0 
L 9.8125 0 
z
" id="DejaVuSans-4c"/>
     </defs>
     <g transform="translate(1042.68182 154.00725)scale(0.12 -0.12)">
      <use xlink:href="#DejaVuSans-54"/>
      <use x="61.083984" xlink:href="#DejaVuSans-4f"/>
      <use x="139.794922" xlink:href="#DejaVuSans-4f"/>
      <use x="218.505859" xlink:href="#DejaVuSans-4c"/>
     </g>
    </g>
    <g id="patch_4">
     <path d="M 1182.541765 184.968 
L 1285.38 184.968 
L 1285.38 116.424 
L 1182.541765 116.424 
z
" style="fill:#ffffff;stroke:#000000;stroke-linejoin:miter;"/>
    </g>
    <g id="text_2">
     <!-- Quartile -->
     <defs>
      <path d="M 39.40625 66.21875 
Q 28.65625 66.21875 22.328125 58.203125 
Q 16.015625 50.203125 16.015625 36.375 
Q 16.015625 22.609375 22.328125 14.59375 
Q 28.65625 6.59375 39.40625 6.59375 
Q 50.140625 6.59375 56.421875 14.59375 
Q 62.703125 22.609375 62.703125 36.375 
Q 62.703125 50.203125 56.421875 58.203125 
Q 50.140625 66.21875 39.40625 66.21875 
z
M 53.21875 1.3125 
L 66.21875 -12.890625 
L 54.296875 -12.890625 
L 43.5 -1.21875 
Q 41.890625 -1.3125 41.03125 -1.359375 
Q 40.1875 -1.421875 39.40625 -1.421875 
Q 24.03125 -1.421875 14.8125 8.859375 
Q 5.609375 19.140625 5.609375 36.375 
Q 5.609375 53.65625 14.8125 63.9375 
Q 24.03125 74.21875 39.40625 74.21875 
Q 54.734375 74.21875 63.90625 63.9375 
Q 73.09375 53.65625 73.09375 36.375 
Q 73.09375 23.6875 67.984375 14.640625 
Q 62.890625 5.609375 53.21875 1.3125 
z
" id="DejaVuSans-51"/>
      <path d="M 8.5 21.578125 
L 8.5 54.6875 
L 17.484375 54.6875 
L 17.484375 21.921875 
Q 17.484375 14.15625 20.5 10.265625 
Q 23.53125 6.390625 29.59375 6.390625 
Q 36.859375 6.390625 41.078125 11.03125 
Q 45.3125 15.671875 45.3125 23.6875 
L 45.3125 54.6875 
L 54.296875 54.6875 
L 54.296875 0 
L 45.3125 0 
L 45.3125 8.40625 
Q 42.046875 3.421875 37.71875 1 
Q 33.40625 -1.421875 27.6875 -1.421875 
Q 18.265625 -1.421875 13.375 4.4375 
Q 8.5 10.296875 8.5 21.578125 
z
M 31.109375 56 
z
" id="DejaVuSans-75"/>
      <path d="M 34.28125 27.484375 
Q 23.390625 27.484375 19.1875 25 
Q 14.984375 22.515625 14.984375 16.5 
Q 14.984375 11.71875 18.140625 8.90625 
Q 21.296875 6.109375 26.703125 6.109375 
Q 34.1875 6.109375 38.703125 11.40625 
Q 43.21875 16.703125 43.21875 25.484375 
L 43.21875 27.484375 
z
M 52.203125 31.203125 
L 52.203125 0 
L 43.21875 0 
L 43.21875 8.296875 
Q 40.140625 3.328125 35.546875 0.953125 
Q 30.953125 -1.421875 24.3125 -1.421875 
Q 15.921875 -1.421875 10.953125 3.296875 
Q 6 8.015625 6 15.921875 
Q 6 25.140625 12.171875 29.828125 
Q 18.359375 34.515625 30.609375 34.515625 
L 43.21875 34.515625 
L 43.21875 35.40625 
Q 43.21875 41.609375 39.140625 45 
Q 35.0625 48.390625 27.6875 48.390625 
Q 23 48.390625 18.546875 47.265625 
Q 14.109375 46.140625 10.015625 43.890625 
L 10.015625 52.203125 
Q 14.9375 54.109375 19.578125 55.046875 
Q 24.21875 56 28.609375 56 
Q 40.484375 56 46.34375 49.84375 
Q 52.203125 43.703125 52.203125 31.203125 
z
" id="DejaVuSans-61"/>
      <path d="M 41.109375 46.296875 
Q 39.59375 47.171875 37.8125 47.578125 
Q 36.03125 48 33.890625 48 
Q 26.265625 48 22.1875 43.046875 
Q 18.109375 38.09375 18.109375 28.8125 
L 18.109375 0 
L 9.078125 0 
L 9.078125 54.6875 
L 18.109375 54.6875 
L 18.109375 46.1875 
Q 20.953125 51.171875 25.484375 53.578125 
Q 30.03125 56 36.53125 56 
Q 37.453125 56 38.578125 55.875 
Q 39.703125 55.765625 41.0625 55.515625 
z
" id="DejaVuSans-72"/>
      <path d="M 18.3125 70.21875 
L 18.3125 54.6875 
L 36.8125 54.6875 
L 36.8125 47.703125 
L 18.3125 47.703125 
L 18.3125 18.015625 
Q 18.3125 11.328125 20.140625 9.421875 
Q 21.96875 7.515625 27.59375 7.515625 
L 36.8125 7.515625 
L 36.8125 0 
L 27.59375 0 
Q 17.1875 0 13.234375 3.875 
Q 9.28125 7.765625 9.28125 18.015625 
L 9.28125 47.703125 
L 2.6875 47.703125 
L 2.6875 54.6875 
L 9.28125 54.6875 
L 9.28125 70.21875 
z
" id="DejaVuSans-74"/>
      <path d="M 9.421875 54.6875 
L 18.40625 54.6875 
L 18.40625 0 
L 9.421875 0 
z
M 9.421875 75.984375 
L 18.40625 75.984375 
L 18.40625 64.59375 
L 9.421875 64.59375 
z
" id="DejaVuSans-69"/>
      <path d="M 9.421875 75.984375 
L 18.40625 75.984375 
L 18.40625 0 
L 9.421875 0 
z
" id="DejaVuSans-6c"/>
      <path d="M 56.203125 29.59375 
L 56.203125 25.203125 
L 14.890625 25.203125 
Q 15.484375 15.921875 20.484375 11.0625 
Q 25.484375 6.203125 34.421875 6.203125 
Q 39.59375 6.203125 44.453125 7.46875 
Q 49.3125 8.734375 54.109375 11.28125 
L 54.109375 2.78125 
Q 49.265625 0.734375 44.1875 -0.34375 
Q 39.109375 -1.421875 33.890625 -1.421875 
Q 20.796875 -1.421875 13.15625 6.1875 
Q 5.515625 13.8125 5.515625 26.8125 
Q 5.515625 40.234375 12.765625 48.109375 
Q 20.015625 56 32.328125 56 
Q 43.359375 56 49.78125 48.890625 
Q 56.203125 41.796875 56.203125 29.59375 
z
M 47.21875 32.234375 
Q 47.125 39.59375 43.09375 43.984375 
Q 39.0625 48.390625 32.421875 48.390625 
Q 24.90625 48.390625 20.390625 44.140625 
Q 15.875 39.890625 15.1875 32.171875 
z
" id="DejaVuSans-65"/>
     </defs>
     <g transform="translate(1209.914007 154.00725)scale(0.12 -0.12)">
      <use xlink:href="#DejaVuSans-51"/>
      <use x="78.710938" xlink:href="#DejaVuSans-75"/>
      <use x="142.089844" xlink:href="#DejaVuSans-61"/>
      <use x="203.369141" xlink:href="#DejaVuSans-72"/>
      <use x="244.482422" xlink:href="#DejaVuSans-74"/>
      <use x="283.691406" xlink:href="#DejaVuSans-69"/>
      <use x="311.474609" xlink:href="#DejaVuSans-6c"/>
      <use x="339.257812" xlink:href="#DejaVuSans-65"/>
     </g>
    </g>
    <g id="patch_5">
     <path d="M 935.73 253.512 
L 1182.541765 253.512 
L 1182.541765 184.968 
L 935.73 184.968 
z
" style="fill:#ffffff;stroke:#000000;stroke-linejoin:miter;"/>
    </g>
    <g id="text_3">
     <!-- participant1 -->
     <defs>
      <path d="M 18.109375 8.203125 
L 18.109375 -20.796875 
L 9.078125 -20.796875 
L 9.078125 54.6875 
L 18.109375 54.6875 
L 18.109375 46.390625 
Q 20.953125 51.265625 25.265625 53.625 
Q 29.59375 56 35.59375 56 
Q 45.5625 56 51.78125 48.09375 
Q 58.015625 40.1875 58.015625 27.296875 
Q 58.015625 14.40625 51.78125 6.484375 
Q 45.5625 -1.421875 35.59375 -1.421875 
Q 29.59375 -1.421875 25.265625 0.953125 
Q 20.953125 3.328125 18.109375 8.203125 
z
M 48.6875 27.296875 
Q 48.6875 37.203125 44.609375 42.84375 
Q 40.53125 48.484375 33.40625 48.484375 
Q 26.265625 48.484375 22.1875 42.84375 
Q 18.109375 37.203125 18.109375 27.296875 
Q 18.109375 17.390625 22.1875 11.75 
Q 26.265625 6.109375 33.40625 6.109375 
Q 40.53125 6.109375 44.609375 11.75 
Q 48.6875 17.390625 48.6875 27.296875 
z
" id="DejaVuSans-70"/>
      <path d="M 48.78125 52.59375 
L 48.78125 44.1875 
Q 44.96875 46.296875 41.140625 47.34375 
Q 37.3125 48.390625 33.40625 48.390625 
Q 24.65625 48.390625 19.8125 42.84375 
Q 14.984375 37.3125 14.984375 27.296875 
Q 14.984375 17.28125 19.8125 11.734375 
Q 24.65625 6.203125 33.40625 6.203125 
Q 37.3125 6.203125 41.140625 7.25 
Q 44.96875 8.296875 48.78125 10.40625 
L 48.78125 2.09375 
Q 45.015625 0.34375 40.984375 -0.53125 
Q 36.96875 -1.421875 32.421875 -1.421875 
Q 20.0625 -1.421875 12.78125 6.34375 
Q 5.515625 14.109375 5.515625 27.296875 
Q 5.515625 40.671875 12.859375 48.328125 
Q 20.21875 56 33.015625 56 
Q 37.15625 56 41.109375 55.140625 
Q 45.0625 54.296875 48.78125 52.59375 
z
" id="DejaVuSans-63"/>
      <path d="M 54.890625 33.015625 
L 54.890625 0 
L 45.90625 0 
L 45.90625 32.71875 
Q 45.90625 40.484375 42.875 44.328125 
Q 39.84375 48.1875 33.796875 48.1875 
Q 26.515625 48.1875 22.3125 43.546875 
Q 18.109375 38.921875 18.109375 30.90625 
L 18.109375 0 
L 9.078125 0 
L 9.078125 54.6875 
L 18.109375 54.6875 
L 18.109375 46.1875 
Q 21.34375 51.125 25.703125 53.5625 
Q 30.078125 56 35.796875 56 
Q 45.21875 56 50.046875 50.171875 
Q 54.890625 44.34375 54.890625 33.015625 
z
" id="DejaVuSans-6e"/>
      <path d="M 12.40625 8.296875 
L 28.515625 8.296875 
L 28.515625 63.921875 
L 10.984375 60.40625 
L 10.984375 69.390625 
L 28.421875 72.90625 
L 38.28125 72.90625 
L 38.28125 8.296875 
L 54.390625 8.296875 
L 54.390625 0 
L 12.40625 0 
z
" id="DejaVuSans-31"/>
     </defs>
     <g transform="translate(1022.740257 222.55125)scale(0.12 -0.12)">
      <use xlink:href="#DejaVuSans-70"/>
      <use x="63.476562" xlink:href="#DejaVuSans-61"/>
      <use x="124.755859" xlink:href="#DejaVuSans-72"/>
      <use x="165.869141" xlink:href="#DejaVuSans-74"/>
      <use x="205.078125" xlink:href="#DejaVuSans-69"/>
      <use x="232.861328" xlink:href="#DejaVuSans-63"/>
      <use x="287.841797" xlink:href="#DejaVuSans-69"/>
      <use x="315.625" xlink:href="#DejaVuSans-70"/>
      <use x="379.101562" xlink:href="#DejaVuSans-61"/>
      <use x="440.380859" xlink:href="#DejaVuSans-6e"/>
      <use x="503.759766" xlink:href="#DejaVuSans-74"/>
      <use x="542.96875" xlink:href="#DejaVuSans-31"/>
     </g>
    </g>
    <g id="patch_6">
     <path d="M 1182.541765 253.512 
L 1285.38 253.512 
L 1285.38 184.968 
L 1182.541765 184.968 
z
" style="fill:#edf8e9;stroke:#000000;stroke-linejoin:miter;"/>
    </g>
    <g id="text_4">
     <!-- 4 -->
     <defs>
      <path d="M 37.796875 64.3125 
L 12.890625 25.390625 
L 37.796875 25.390625 
z
M 35.203125 72.90625 
L 47.609375 72.90625 
L 47.609375 25.390625 
L 58.015625 25.390625 
L 58.015625 17.1875 
L 47.609375 17.1875 
L 47.609375 0 
L 37.796875 0 
L 37.796875 17.1875 
L 4.890625 17.1875 
L 4.890625 26.703125 
z
" id="DejaVuSans-34"/>
     </defs>
     <g transform="translate(1230.143382 222.55125)scale(0.12 -0.12)">
      <use xlink:href="#DejaVuSans-34"/>
     </g>
    </g>
    <g id="patch_7">
     <path d="M 935.73 322.056 
L 1182.541765 322.056 
L 1182.541765 253.512 
L 935.73 253.512 
z
" style="fill:#ffffff;stroke:#000000;stroke-linejoin:miter;"/>
    </g>
    <g id="text_5">
     <!-- participant0 -->
     <defs>
      <path d="M 31.78125 66.40625 
Q 24.171875 66.40625 20.328125 58.90625 
Q 16.5 51.421875 16.5 36.375 
Q 16.5 21.390625 20.328125 13.890625 
Q 24.171875 6.390625 31.78125 6.390625 
Q 39.453125 6.390625 43.28125 13.890625 
Q 47.125 21.390625 47.125 36.375 
Q 47.125 51.421875 43.28125 58.90625 
Q 39.453125 66.40625 31.78125 66.40625 
z
M 31.78125 74.21875 
Q 44.046875 74.21875 50.515625 64.515625 
Q 56.984375 54.828125 56.984375 36.375 
Q 56.984375 17.96875 50.515625 8.265625 
Q 44.046875 -1.421875 31.78125 -1.421875 
Q 19.53125 -1.421875 13.0625 8.265625 
Q 6.59375 17.96875 6.59375 36.375 
Q 6.59375 54.828125 13.0625 64.515625 
Q 19.53125 74.21875 31.78125 74.21875 
z
" id="DejaVuSans-30"/>
     </defs>
     <g transform="translate(1022.740257 291.09525)scale(0.12 -0.12)">
      <use xlink:href="#DejaVuSans-70"/>
      <use x="63.476562" xlink:href="#DejaVuSans-61"/>
      <use x="124.755859" xlink:href="#DejaVuSans-72"/>
      <use x="165.869141" xlink:href="#DejaVuSans-74"/>
      <use x="205.078125" xlink:href="#DejaVuSans-69"/>
      <use x="232.861328" xlink:href="#DejaVuSans-63"/>
      <use x="287.841797" xlink:href="#DejaVuSans-69"/>
      <use x="315.625" xlink:href="#DejaVuSans-70"/>
      <use x="379.101562" xlink:href="#DejaVuSans-61"/>
      <use x="440.380859" xlink:href="#DejaVuSans-6e"/>
      <use x="503.759766" xlink:href="#DejaVuSans-74"/>
      <use x="542.96875" xlink:href="#DejaVuSans-30"/>
     </g>
    </g>
    <g id="patch_8">
     <path d="M 1182.541765 322.056 
L 1285.38 322.056 
L 1285.38 253.512 
L 1182.541765 253.512 
z
" style="fill:#edf8e9;stroke:#000000;stroke-linejoin:miter;"/>
    </g>
    <g id="text_6">
     <!-- 4 -->
     <g transform="translate(1230.143382 291.09525)scale(0.12 -0.12)">
      <use xlink:href="#DejaVuSans-34"/>
     </g>
    </g>
    <g id="patch_9">
     <path d="M 935.73 390.6 
L 1182.541765 390.6 
L 1182.541765 322.056 
L 935.73 322.056 
z
" style="fill:#ffffff;stroke:#000000;stroke-linejoin:miter;"/>
    </g>
    <g id="text_7">
     <!-- participant3 -->
     <defs>
      <path d="M 40.578125 39.3125 
Q 47.65625 37.796875 51.625 33 
Q 55.609375 28.21875 55.609375 21.1875 
Q 55.609375 10.40625 48.1875 4.484375 
Q 40.765625 -1.421875 27.09375 -1.421875 
Q 22.515625 -1.421875 17.65625 -0.515625 
Q 12.796875 0.390625 7.625 2.203125 
L 7.625 11.71875 
Q 11.71875 9.328125 16.59375 8.109375 
Q 21.484375 6.890625 26.8125 6.890625 
Q 36.078125 6.890625 40.9375 10.546875 
Q 45.796875 14.203125 45.796875 21.1875 
Q 45.796875 27.640625 41.28125 31.265625 
Q 36.765625 34.90625 28.71875 34.90625 
L 20.21875 34.90625 
L 20.21875 43.015625 
L 29.109375 43.015625 
Q 36.375 43.015625 40.234375 45.921875 
Q 44.09375 48.828125 44.09375 54.296875 
Q 44.09375 59.90625 40.109375 62.90625 
Q 36.140625 65.921875 28.71875 65.921875 
Q 24.65625 65.921875 20.015625 65.03125 
Q 15.375 64.15625 9.8125 62.3125 
L 9.8125 71.09375 
Q 15.4375 72.65625 20.34375 73.4375 
Q 25.25 74.21875 29.59375 74.21875 
Q 40.828125 74.21875 47.359375 69.109375 
Q 53.90625 64.015625 53.90625 55.328125 
Q 53.90625 49.265625 50.4375 45.09375 
Q 46.96875 40.921875 40.578125 39.3125 
z
" id="DejaVuSans-33"/>
     </defs>
     <g transform="translate(1022.740257 359.63925)scale(0.12 -0.12)">
      <use xlink:href="#DejaVuSans-70"/>
      <use x="63.476562" xlink:href="#DejaVuSans-61"/>
      <use x="124.755859" xlink:href="#DejaVuSans-72"/>
      <use x="165.869141" xlink:href="#DejaVuSans-74"/>
      <use x="205.078125" xlink:href="#DejaVuSans-69"/>
      <use x="232.861328" xlink:href="#DejaVuSans-63"/>
      <use x="287.841797" xlink:href="#DejaVuSans-69"/>
      <use x="315.625" xlink:href="#DejaVuSans-70"/>
      <use x="379.101562" xlink:href="#DejaVuSans-61"/>
      <use x="440.380859" xlink:href="#DejaVuSans-6e"/>
      <use x="503.759766" xlink:href="#DejaVuSans-74"/>
      <use x="542.96875" xlink:href="#DejaVuSans-33"/>
     </g>
    </g>
    <g id="patch_10">
     <path d="M 1182.541765 390.6 
L 1285.38 390.6 
L 1285.38 322.056 
L 1182.541765 322.056 
z
" style="fill:#74c476;stroke:#000000;stroke-linejoin:miter;"/>
    </g>
    <g id="text_8">
     <!-- 2 -->
     <defs>
      <path d="M 19.1875 8.296875 
L 53.609375 8.296875 
L 53.609375 0 
L 7.328125 0 
L 7.328125 8.296875 
Q 12.9375 14.109375 22.625 23.890625 
Q 32.328125 33.6875 34.8125 36.53125 
Q 39.546875 41.84375 41.421875 45.53125 
Q 43.3125 49.21875 43.3125 52.78125 
Q 43.3125 58.59375 39.234375 62.25 
Q 35.15625 65.921875 28.609375 65.921875 
Q 23.96875 65.921875 18.8125 64.3125 
Q 13.671875 62.703125 7.8125 59.421875 
L 7.8125 69.390625 
Q 13.765625 71.78125 18.9375 73 
Q 24.125 74.21875 28.421875 74.21875 
Q 39.75 74.21875 46.484375 68.546875 
Q 53.21875 62.890625 53.21875 53.421875 
Q 53.21875 48.921875 51.53125 44.890625 
Q 49.859375 40.875 45.40625 35.40625 
Q 44.1875 33.984375 37.640625 27.21875 
Q 31.109375 20.453125 19.1875 8.296875 
z
" id="DejaVuSans-32"/>
     </defs>
     <g transform="translate(1230.143382 359.63925)scale(0.12 -0.12)">
      <use xlink:href="#DejaVuSans-32"/>
     </g>
    </g>
    <g id="patch_11">
     <path d="M 935.73 459.144 
L 1182.541765 459.144 
L 1182.541765 390.6 
L 935.73 390.6 
z
" style="fill:#ffffff;stroke:#000000;stroke-linejoin:miter;"/>
    </g>
    <g id="text_9">
     <!-- participant2 -->
     <g transform="translate(1022.740257 428.18325)scale(0.12 -0.12)">
      <use xlink:href="#DejaVuSans-70"/>
      <use x="63.476562" xlink:href="#DejaVuSans-61"/>
      <use x="124.755859" xlink:href="#DejaVuSans-72"/>
      <use x="165.869141" xlink:href="#DejaVuSans-74"/>
      <use x="205.078125" xlink:href="#DejaVuSans-69"/>
      <use x="232.861328" xlink:href="#DejaVuSans-63"/>
      <use x="287.841797" xlink:href="#DejaVuSans-69"/>
      <use x="315.625" xlink:href="#DejaVuSans-70"/>
      <use x="379.101562" xlink:href="#DejaVuSans-61"/>
      <use x="440.380859" xlink:href="#DejaVuSans-6e"/>
      <use x="503.759766" xlink:href="#DejaVuSans-74"/>
      <use x="542.96875" xlink:href="#DejaVuSans-32"/>
     </g>
    </g>
    <g id="patch_12">
     <path d="M 1182.541765 459.144 
L 1285.38 459.144 
L 1285.38 390.6 
L 1182.541765 390.6 
z
" style="fill:#edf8e9;stroke:#000000;stroke-linejoin:miter;"/>
    </g>
    <g id="text_10">
     <!-- 4 -->
     <g transform="translate(1230.143382 428.18325)scale(0.12 -0.12)">
      <use xlink:href="#DejaVuSans-34"/>
     </g>
    </g>
    <g id="patch_13">
     <path d="M 935.73 527.688 
L 1182.541765 527.688 
L 1182.541765 459.144 
L 935.73 459.144 
z
" style="fill:#ffffff;stroke:#000000;stroke-linejoin:miter;"/>
    </g>
    <g id="text_11">
     <!-- participant4 -->
     <g transform="translate(1022.740257 496.72725)scale(0.12 -0.12)">
      <use xlink:href="#DejaVuSans-70"/>
      <use x="63.476562" xlink:href="#DejaVuSans-61"/>
      <use x="124.755859" xlink:href="#DejaVuSans-72"/>
      <use x="165.869141" xlink:href="#DejaVuSans-74"/>
      <use x="205.078125" xlink:href="#DejaVuSans-69"/>
      <use x="232.861328" xlink:href="#DejaVuSans-63"/>
      <use x="287.841797" xlink:href="#DejaVuSans-69"/>
      <use x="315.625" xlink:href="#DejaVuSans-70"/>
      <use x="379.101562" xlink:href="#DejaVuSans-61"/>
      <use x="440.380859" xlink:href="#DejaVuSans-6e"/>
      <use x="503.759766" xlink:href="#DejaVuSans-74"/>
      <use x="542.96875" xlink:href="#DejaVuSans-34"/>
     </g>
    </g>
    <g id="patch_14">
     <path d="M 1182.541765 527.688 
L 1285.38 527.688 
L 1285.38 459.144 
L 1182.541765 459.144 
z
" style="fill:#238b45;stroke:#000000;stroke-linejoin:miter;"/>
    </g>
    <g id="text_12">
     <!-- 1 -->
     <g transform="translate(1230.143382 496.72725)scale(0.12 -0.12)">
      <use xlink:href="#DejaVuSans-31"/>
     </g>
    </g>
   </g>
   <g id="matplotlib.axis_1">
    <g id="xtick_1">
     <g id="line2d_1">
      <path clip-path="url(#pc5ded47f4b)" d="M 198.286364 604.8 
L 198.286364 90.72 
" style="fill:none;stroke:#b0b0b0;stroke-linecap:square;stroke-width:0.5;"/>
     </g>
     <g id="line2d_2">
      <defs>
       <path d="M 0 0 
L 0 3.5 
" id="mdd56383f82" style="stroke:#000000;stroke-width:0.8;"/>
      </defs>
      <g>
       <use style="stroke:#000000;stroke-width:0.8;" x="198.286364" xlink:href="#mdd56383f82" y="604.8"/>
      </g>
     </g>
     <g id="text_13">
      <!-- 0 -->
      <g transform="translate(195.105114 619.398438)scale(0.1 -0.1)">
       <use xlink:href="#DejaVuSans-30"/>
      </g>
     </g>
    </g>
    <g id="xtick_2">
     <g id="line2d_3">
      <path clip-path="url(#pc5ded47f4b)" d="M 287.825416 604.8 
L 287.825416 90.72 
" style="fill:none;stroke:#b0b0b0;stroke-linecap:square;stroke-width:0.5;"/>
     </g>
     <g id="line2d_4">
      <g>
       <use style="stroke:#000000;stroke-width:0.8;" x="287.825416" xlink:href="#mdd56383f82" y="604.8"/>
      </g>
     </g>
     <g id="text_14">
      <!-- 10 -->
      <g transform="translate(281.462916 619.398438)scale(0.1 -0.1)">
       <use xlink:href="#DejaVuSans-31"/>
       <use x="63.623047" xlink:href="#DejaVuSans-30"/>
      </g>
     </g>
    </g>
    <g id="xtick_3">
     <g id="line2d_5">
      <path clip-path="url(#pc5ded47f4b)" d="M 377.364469 604.8 
L 377.364469 90.72 
" style="fill:none;stroke:#b0b0b0;stroke-linecap:square;stroke-width:0.5;"/>
     </g>
     <g id="line2d_6">
      <g>
       <use style="stroke:#000000;stroke-width:0.8;" x="377.364469" xlink:href="#mdd56383f82" y="604.8"/>
      </g>
     </g>
     <g id="text_15">
      <!-- 20 -->
      <g transform="translate(371.001969 619.398438)scale(0.1 -0.1)">
       <use xlink:href="#DejaVuSans-32"/>
       <use x="63.623047" xlink:href="#DejaVuSans-30"/>
      </g>
     </g>
    </g>
    <g id="xtick_4">
     <g id="line2d_7">
      <path clip-path="url(#pc5ded47f4b)" d="M 466.903521 604.8 
L 466.903521 90.72 
" style="fill:none;stroke:#b0b0b0;stroke-linecap:square;stroke-width:0.5;"/>
     </g>
     <g id="line2d_8">
      <g>
       <use style="stroke:#000000;stroke-width:0.8;" x="466.903521" xlink:href="#mdd56383f82" y="604.8"/>
      </g>
     </g>
     <g id="text_16">
      <!-- 30 -->
      <g transform="translate(460.541021 619.398438)scale(0.1 -0.1)">
       <use xlink:href="#DejaVuSans-33"/>
       <use x="63.623047" xlink:href="#DejaVuSans-30"/>
      </g>
     </g>
    </g>
    <g id="xtick_5">
     <g id="line2d_9">
      <path clip-path="url(#pc5ded47f4b)" d="M 556.442574 604.8 
L 556.442574 90.72 
" style="fill:none;stroke:#b0b0b0;stroke-linecap:square;stroke-width:0.5;"/>
     </g>
     <g id="line2d_10">
      <g>
       <use style="stroke:#000000;stroke-width:0.8;" x="556.442574" xlink:href="#mdd56383f82" y="604.8"/>
      </g>
     </g>
     <g id="text_17">
      <!-- 40 -->
      <g transform="translate(550.080074 619.398438)scale(0.1 -0.1)">
       <use xlink:href="#DejaVuSans-34"/>
       <use x="63.623047" xlink:href="#DejaVuSans-30"/>
      </g>
     </g>
    </g>
    <g id="xtick_6">
     <g id="line2d_11">
      <path clip-path="url(#pc5ded47f4b)" d="M 645.981626 604.8 
L 645.981626 90.72 
" style="fill:none;stroke:#b0b0b0;stroke-linecap:square;stroke-width:0.5;"/>
     </g>
     <g id="line2d_12">
      <g>
       <use style="stroke:#000000;stroke-width:0.8;" x="645.981626" xlink:href="#mdd56383f82" y="604.8"/>
      </g>
     </g>
     <g id="text_18">
      <!-- 50 -->
      <defs>
       <path d="M 10.796875 72.90625 
L 49.515625 72.90625 
L 49.515625 64.59375 
L 19.828125 64.59375 
L 19.828125 46.734375 
Q 21.96875 47.46875 24.109375 47.828125 
Q 26.265625 48.1875 28.421875 48.1875 
Q 40.625 48.1875 47.75 41.5 
Q 54.890625 34.8125 54.890625 23.390625 
Q 54.890625 11.625 47.5625 5.09375 
Q 40.234375 -1.421875 26.90625 -1.421875 
Q 22.3125 -1.421875 17.546875 -0.640625 
Q 12.796875 0.140625 7.71875 1.703125 
L 7.71875 11.625 
Q 12.109375 9.234375 16.796875 8.0625 
Q 21.484375 6.890625 26.703125 6.890625 
Q 35.15625 6.890625 40.078125 11.328125 
Q 45.015625 15.765625 45.015625 23.390625 
Q 45.015625 31 40.078125 35.4375 
Q 35.15625 39.890625 26.703125 39.890625 
Q 22.75 39.890625 18.8125 39.015625 
Q 14.890625 38.140625 10.796875 36.28125 
z
" id="DejaVuSans-35"/>
      </defs>
      <g transform="translate(639.619126 619.398438)scale(0.1 -0.1)">
       <use xlink:href="#DejaVuSans-35"/>
       <use x="63.623047" xlink:href="#DejaVuSans-30"/>
      </g>
     </g>
    </g>
    <g id="xtick_7">
     <g id="line2d_13">
      <path clip-path="url(#pc5ded47f4b)" d="M 735.520679 604.8 
L 735.520679 90.72 
" style="fill:none;stroke:#b0b0b0;stroke-linecap:square;stroke-width:0.5;"/>
     </g>
     <g id="line2d_14">
      <g>
       <use style="stroke:#000000;stroke-width:0.8;" x="735.520679" xlink:href="#mdd56383f82" y="604.8"/>
      </g>
     </g>
     <g id="text_19">
      <!-- 60 -->
      <defs>
       <path d="M 33.015625 40.375 
Q 26.375 40.375 22.484375 35.828125 
Q 18.609375 31.296875 18.609375 23.390625 
Q 18.609375 15.53125 22.484375 10.953125 
Q 26.375 6.390625 33.015625 6.390625 
Q 39.65625 6.390625 43.53125 10.953125 
Q 47.40625 15.53125 47.40625 23.390625 
Q 47.40625 31.296875 43.53125 35.828125 
Q 39.65625 40.375 33.015625 40.375 
z
M 52.59375 71.296875 
L 52.59375 62.3125 
Q 48.875 64.0625 45.09375 64.984375 
Q 41.3125 65.921875 37.59375 65.921875 
Q 27.828125 65.921875 22.671875 59.328125 
Q 17.53125 52.734375 16.796875 39.40625 
Q 19.671875 43.65625 24.015625 45.921875 
Q 28.375 48.1875 33.59375 48.1875 
Q 44.578125 48.1875 50.953125 41.515625 
Q 57.328125 34.859375 57.328125 23.390625 
Q 57.328125 12.15625 50.6875 5.359375 
Q 44.046875 -1.421875 33.015625 -1.421875 
Q 20.359375 -1.421875 13.671875 8.265625 
Q 6.984375 17.96875 6.984375 36.375 
Q 6.984375 53.65625 15.1875 63.9375 
Q 23.390625 74.21875 37.203125 74.21875 
Q 40.921875 74.21875 44.703125 73.484375 
Q 48.484375 72.75 52.59375 71.296875 
z
" id="DejaVuSans-36"/>
      </defs>
      <g transform="translate(729.158179 619.398438)scale(0.1 -0.1)">
       <use xlink:href="#DejaVuSans-36"/>
       <use x="63.623047" xlink:href="#DejaVuSans-30"/>
      </g>
     </g>
    </g>
    <g id="xtick_8">
     <g id="line2d_15">
      <path clip-path="url(#pc5ded47f4b)" d="M 825.059731 604.8 
L 825.059731 90.72 
" style="fill:none;stroke:#b0b0b0;stroke-linecap:square;stroke-width:0.5;"/>
     </g>
     <g id="line2d_16">
      <g>
       <use style="stroke:#000000;stroke-width:0.8;" x="825.059731" xlink:href="#mdd56383f82" y="604.8"/>
      </g>
     </g>
     <g id="text_20">
      <!-- 70 -->
      <defs>
       <path d="M 8.203125 72.90625 
L 55.078125 72.90625 
L 55.078125 68.703125 
L 28.609375 0 
L 18.3125 0 
L 43.21875 64.59375 
L 8.203125 64.59375 
z
" id="DejaVuSans-37"/>
      </defs>
      <g transform="translate(818.697231 619.398438)scale(0.1 -0.1)">
       <use xlink:href="#DejaVuSans-37"/>
       <use x="63.623047" xlink:href="#DejaVuSans-30"/>
      </g>
     </g>
    </g>
    <g id="text_21">
     <!-- Unweighted Robinson-Foulds metric -->
     <defs>
      <path d="M 8.6875 72.90625 
L 18.609375 72.90625 
L 18.609375 28.609375 
Q 18.609375 16.890625 22.84375 11.734375 
Q 27.09375 6.59375 36.625 6.59375 
Q 46.09375 6.59375 50.34375 11.734375 
Q 54.59375 16.890625 54.59375 28.609375 
L 54.59375 72.90625 
L 64.5 72.90625 
L 64.5 27.390625 
Q 64.5 13.140625 57.4375 5.859375 
Q 50.390625 -1.421875 36.625 -1.421875 
Q 22.796875 -1.421875 15.734375 5.859375 
Q 8.6875 13.140625 8.6875 27.390625 
z
" id="DejaVuSans-55"/>
      <path d="M 4.203125 54.6875 
L 13.1875 54.6875 
L 24.421875 12.015625 
L 35.59375 54.6875 
L 46.1875 54.6875 
L 57.421875 12.015625 
L 68.609375 54.6875 
L 77.59375 54.6875 
L 63.28125 0 
L 52.6875 0 
L 40.921875 44.828125 
L 29.109375 0 
L 18.5 0 
z
" id="DejaVuSans-77"/>
      <path d="M 45.40625 27.984375 
Q 45.40625 37.75 41.375 43.109375 
Q 37.359375 48.484375 30.078125 48.484375 
Q 22.859375 48.484375 18.828125 43.109375 
Q 14.796875 37.75 14.796875 27.984375 
Q 14.796875 18.265625 18.828125 12.890625 
Q 22.859375 7.515625 30.078125 7.515625 
Q 37.359375 7.515625 41.375 12.890625 
Q 45.40625 18.265625 45.40625 27.984375 
z
M 54.390625 6.78125 
Q 54.390625 -7.171875 48.1875 -13.984375 
Q 42 -20.796875 29.203125 -20.796875 
Q 24.46875 -20.796875 20.265625 -20.09375 
Q 16.0625 -19.390625 12.109375 -17.921875 
L 12.109375 -9.1875 
Q 16.0625 -11.328125 19.921875 -12.34375 
Q 23.78125 -13.375 27.78125 -13.375 
Q 36.625 -13.375 41.015625 -8.765625 
Q 45.40625 -4.15625 45.40625 5.171875 
L 45.40625 9.625 
Q 42.625 4.78125 38.28125 2.390625 
Q 33.9375 0 27.875 0 
Q 17.828125 0 11.671875 7.65625 
Q 5.515625 15.328125 5.515625 27.984375 
Q 5.515625 40.671875 11.671875 48.328125 
Q 17.828125 56 27.875 56 
Q 33.9375 56 38.28125 53.609375 
Q 42.625 51.21875 45.40625 46.390625 
L 45.40625 54.6875 
L 54.390625 54.6875 
z
" id="DejaVuSans-67"/>
      <path d="M 54.890625 33.015625 
L 54.890625 0 
L 45.90625 0 
L 45.90625 32.71875 
Q 45.90625 40.484375 42.875 44.328125 
Q 39.84375 48.1875 33.796875 48.1875 
Q 26.515625 48.1875 22.3125 43.546875 
Q 18.109375 38.921875 18.109375 30.90625 
L 18.109375 0 
L 9.078125 0 
L 9.078125 75.984375 
L 18.109375 75.984375 
L 18.109375 46.1875 
Q 21.34375 51.125 25.703125 53.5625 
Q 30.078125 56 35.796875 56 
Q 45.21875 56 50.046875 50.171875 
Q 54.890625 44.34375 54.890625 33.015625 
z
" id="DejaVuSans-68"/>
      <path d="M 45.40625 46.390625 
L 45.40625 75.984375 
L 54.390625 75.984375 
L 54.390625 0 
L 45.40625 0 
L 45.40625 8.203125 
Q 42.578125 3.328125 38.25 0.953125 
Q 33.9375 -1.421875 27.875 -1.421875 
Q 17.96875 -1.421875 11.734375 6.484375 
Q 5.515625 14.40625 5.515625 27.296875 
Q 5.515625 40.1875 11.734375 48.09375 
Q 17.96875 56 27.875 56 
Q 33.9375 56 38.25 53.625 
Q 42.578125 51.265625 45.40625 46.390625 
z
M 14.796875 27.296875 
Q 14.796875 17.390625 18.875 11.75 
Q 22.953125 6.109375 30.078125 6.109375 
Q 37.203125 6.109375 41.296875 11.75 
Q 45.40625 17.390625 45.40625 27.296875 
Q 45.40625 37.203125 41.296875 42.84375 
Q 37.203125 48.484375 30.078125 48.484375 
Q 22.953125 48.484375 18.875 42.84375 
Q 14.796875 37.203125 14.796875 27.296875 
z
" id="DejaVuSans-64"/>
      <path id="DejaVuSans-20"/>
      <path d="M 44.390625 34.1875 
Q 47.5625 33.109375 50.5625 29.59375 
Q 53.5625 26.078125 56.59375 19.921875 
L 66.609375 0 
L 56 0 
L 46.6875 18.703125 
Q 43.0625 26.03125 39.671875 28.421875 
Q 36.28125 30.8125 30.421875 30.8125 
L 19.671875 30.8125 
L 19.671875 0 
L 9.8125 0 
L 9.8125 72.90625 
L 32.078125 72.90625 
Q 44.578125 72.90625 50.734375 67.671875 
Q 56.890625 62.453125 56.890625 51.90625 
Q 56.890625 45.015625 53.6875 40.46875 
Q 50.484375 35.9375 44.390625 34.1875 
z
M 19.671875 64.796875 
L 19.671875 38.921875 
L 32.078125 38.921875 
Q 39.203125 38.921875 42.84375 42.21875 
Q 46.484375 45.515625 46.484375 51.90625 
Q 46.484375 58.296875 42.84375 61.546875 
Q 39.203125 64.796875 32.078125 64.796875 
z
" id="DejaVuSans-52"/>
      <path d="M 30.609375 48.390625 
Q 23.390625 48.390625 19.1875 42.75 
Q 14.984375 37.109375 14.984375 27.296875 
Q 14.984375 17.484375 19.15625 11.84375 
Q 23.34375 6.203125 30.609375 6.203125 
Q 37.796875 6.203125 41.984375 11.859375 
Q 46.1875 17.53125 46.1875 27.296875 
Q 46.1875 37.015625 41.984375 42.703125 
Q 37.796875 48.390625 30.609375 48.390625 
z
M 30.609375 56 
Q 42.328125 56 49.015625 48.375 
Q 55.71875 40.765625 55.71875 27.296875 
Q 55.71875 13.875 49.015625 6.21875 
Q 42.328125 -1.421875 30.609375 -1.421875 
Q 18.84375 -1.421875 12.171875 6.21875 
Q 5.515625 13.875 5.515625 27.296875 
Q 5.515625 40.765625 12.171875 48.375 
Q 18.84375 56 30.609375 56 
z
" id="DejaVuSans-6f"/>
      <path d="M 48.6875 27.296875 
Q 48.6875 37.203125 44.609375 42.84375 
Q 40.53125 48.484375 33.40625 48.484375 
Q 26.265625 48.484375 22.1875 42.84375 
Q 18.109375 37.203125 18.109375 27.296875 
Q 18.109375 17.390625 22.1875 11.75 
Q 26.265625 6.109375 33.40625 6.109375 
Q 40.53125 6.109375 44.609375 11.75 
Q 48.6875 17.390625 48.6875 27.296875 
z
M 18.109375 46.390625 
Q 20.953125 51.265625 25.265625 53.625 
Q 29.59375 56 35.59375 56 
Q 45.5625 56 51.78125 48.09375 
Q 58.015625 40.1875 58.015625 27.296875 
Q 58.015625 14.40625 51.78125 6.484375 
Q 45.5625 -1.421875 35.59375 -1.421875 
Q 29.59375 -1.421875 25.265625 0.953125 
Q 20.953125 3.328125 18.109375 8.203125 
L 18.109375 0 
L 9.078125 0 
L 9.078125 75.984375 
L 18.109375 75.984375 
z
" id="DejaVuSans-62"/>
      <path d="M 44.28125 53.078125 
L 44.28125 44.578125 
Q 40.484375 46.53125 36.375 47.5 
Q 32.28125 48.484375 27.875 48.484375 
Q 21.1875 48.484375 17.84375 46.4375 
Q 14.5 44.390625 14.5 40.28125 
Q 14.5 37.15625 16.890625 35.375 
Q 19.28125 33.59375 26.515625 31.984375 
L 29.59375 31.296875 
Q 39.15625 29.25 43.1875 25.515625 
Q 47.21875 21.78125 47.21875 15.09375 
Q 47.21875 7.46875 41.1875 3.015625 
Q 35.15625 -1.421875 24.609375 -1.421875 
Q 20.21875 -1.421875 15.453125 -0.5625 
Q 10.6875 0.296875 5.421875 2 
L 5.421875 11.28125 
Q 10.40625 8.6875 15.234375 7.390625 
Q 20.0625 6.109375 24.8125 6.109375 
Q 31.15625 6.109375 34.5625 8.28125 
Q 37.984375 10.453125 37.984375 14.40625 
Q 37.984375 18.0625 35.515625 20.015625 
Q 33.0625 21.96875 24.703125 23.78125 
L 21.578125 24.515625 
Q 13.234375 26.265625 9.515625 29.90625 
Q 5.8125 33.546875 5.8125 39.890625 
Q 5.8125 47.609375 11.28125 51.796875 
Q 16.75 56 26.8125 56 
Q 31.78125 56 36.171875 55.265625 
Q 40.578125 54.546875 44.28125 53.078125 
z
" id="DejaVuSans-73"/>
      <path d="M 4.890625 31.390625 
L 31.203125 31.390625 
L 31.203125 23.390625 
L 4.890625 23.390625 
z
" id="DejaVuSans-2d"/>
      <path d="M 9.8125 72.90625 
L 51.703125 72.90625 
L 51.703125 64.59375 
L 19.671875 64.59375 
L 19.671875 43.109375 
L 48.578125 43.109375 
L 48.578125 34.8125 
L 19.671875 34.8125 
L 19.671875 0 
L 9.8125 0 
z
" id="DejaVuSans-46"/>
      <path d="M 52 44.1875 
Q 55.375 50.25 60.0625 53.125 
Q 64.75 56 71.09375 56 
Q 79.640625 56 84.28125 50.015625 
Q 88.921875 44.046875 88.921875 33.015625 
L 88.921875 0 
L 79.890625 0 
L 79.890625 32.71875 
Q 79.890625 40.578125 77.09375 44.375 
Q 74.3125 48.1875 68.609375 48.1875 
Q 61.625 48.1875 57.5625 43.546875 
Q 53.515625 38.921875 53.515625 30.90625 
L 53.515625 0 
L 44.484375 0 
L 44.484375 32.71875 
Q 44.484375 40.625 41.703125 44.40625 
Q 38.921875 48.1875 33.109375 48.1875 
Q 26.21875 48.1875 22.15625 43.53125 
Q 18.109375 38.875 18.109375 30.90625 
L 18.109375 0 
L 9.078125 0 
L 9.078125 54.6875 
L 18.109375 54.6875 
L 18.109375 46.1875 
Q 21.1875 51.21875 25.484375 53.609375 
Q 29.78125 56 35.6875 56 
Q 41.65625 56 45.828125 52.96875 
Q 50 49.953125 52 44.1875 
z
" id="DejaVuSans-6d"/>
     </defs>
     <g transform="translate(407.68875 634.59625)scale(0.12 -0.12)">
      <use xlink:href="#DejaVuSans-55"/>
      <use x="73.193359" xlink:href="#DejaVuSans-6e"/>
      <use x="136.572266" xlink:href="#DejaVuSans-77"/>
      <use x="218.359375" xlink:href="#DejaVuSans-65"/>
      <use x="279.882812" xlink:href="#DejaVuSans-69"/>
      <use x="307.666016" xlink:href="#DejaVuSans-67"/>
      <use x="371.142578" xlink:href="#DejaVuSans-68"/>
      <use x="434.521484" xlink:href="#DejaVuSans-74"/>
      <use x="473.730469" xlink:href="#DejaVuSans-65"/>
      <use x="535.253906" xlink:href="#DejaVuSans-64"/>
      <use x="598.730469" xlink:href="#DejaVuSans-20"/>
      <use x="630.517578" xlink:href="#DejaVuSans-52"/>
      <use x="699.9375" xlink:href="#DejaVuSans-6f"/>
      <use x="761.119141" xlink:href="#DejaVuSans-62"/>
      <use x="824.595703" xlink:href="#DejaVuSans-69"/>
      <use x="852.378906" xlink:href="#DejaVuSans-6e"/>
      <use x="915.757812" xlink:href="#DejaVuSans-73"/>
      <use x="967.857422" xlink:href="#DejaVuSans-6f"/>
      <use x="1029.039062" xlink:href="#DejaVuSans-6e"/>
      <use x="1092.417969" xlink:href="#DejaVuSans-2d"/>
      <use x="1128.501953" xlink:href="#DejaVuSans-46"/>
      <use x="1185.974609" xlink:href="#DejaVuSans-6f"/>
      <use x="1247.15625" xlink:href="#DejaVuSans-75"/>
      <use x="1310.535156" xlink:href="#DejaVuSans-6c"/>
      <use x="1338.318359" xlink:href="#DejaVuSans-64"/>
      <use x="1401.794922" xlink:href="#DejaVuSans-73"/>
      <use x="1453.894531" xlink:href="#DejaVuSans-20"/>
      <use x="1485.681641" xlink:href="#DejaVuSans-6d"/>
      <use x="1583.09375" xlink:href="#DejaVuSans-65"/>
      <use x="1644.617188" xlink:href="#DejaVuSans-74"/>
      <use x="1683.826172" xlink:href="#DejaVuSans-72"/>
      <use x="1724.939453" xlink:href="#DejaVuSans-69"/>
      <use x="1752.722656" xlink:href="#DejaVuSans-63"/>
     </g>
    </g>
   </g>
   <g id="matplotlib.axis_2">
    <g id="ytick_1">
     <g id="line2d_17">
      <path clip-path="url(#pc5ded47f4b)" d="M 166.5 581.435933 
L 865.8 581.435933 
" style="fill:none;stroke:#b0b0b0;stroke-linecap:square;stroke-width:0.5;"/>
     </g>
     <g id="line2d_18">
      <defs>
       <path d="M 0 0 
L -3.5 0 
" id="m682db4d67d" style="stroke:#000000;stroke-width:0.8;"/>
      </defs>
      <g>
       <use style="stroke:#000000;stroke-width:0.8;" x="166.5" xlink:href="#m682db4d67d" y="581.435933"/>
      </g>
     </g>
     <g id="text_22">
      <!-- 0 -->
      <g transform="translate(153.1375 585.235151)scale(0.1 -0.1)">
       <use xlink:href="#DejaVuSans-30"/>
      </g>
     </g>
    </g>
    <g id="ytick_2">
     <g id="line2d_19">
      <path clip-path="url(#pc5ded47f4b)" d="M 166.5 470.90513 
L 865.8 470.90513 
" style="fill:none;stroke:#b0b0b0;stroke-linecap:square;stroke-width:0.5;"/>
     </g>
     <g id="line2d_20">
      <g>
       <use style="stroke:#000000;stroke-width:0.8;" x="166.5" xlink:href="#m682db4d67d" y="470.90513"/>
      </g>
     </g>
     <g id="text_23">
      <!-- 1 -->
      <g transform="translate(153.1375 474.704349)scale(0.1 -0.1)">
       <use xlink:href="#DejaVuSans-31"/>
      </g>
     </g>
    </g>
    <g id="ytick_3">
     <g id="line2d_21">
      <path clip-path="url(#pc5ded47f4b)" d="M 166.5 360.374328 
L 865.8 360.374328 
" style="fill:none;stroke:#b0b0b0;stroke-linecap:square;stroke-width:0.5;"/>
     </g>
     <g id="line2d_22">
      <g>
       <use style="stroke:#000000;stroke-width:0.8;" x="166.5" xlink:href="#m682db4d67d" y="360.374328"/>
      </g>
     </g>
     <g id="text_24">
      <!-- 2 -->
      <g transform="translate(153.1375 364.173547)scale(0.1 -0.1)">
       <use xlink:href="#DejaVuSans-32"/>
      </g>
     </g>
    </g>
    <g id="ytick_4">
     <g id="line2d_23">
      <path clip-path="url(#pc5ded47f4b)" d="M 166.5 249.843525 
L 865.8 249.843525 
" style="fill:none;stroke:#b0b0b0;stroke-linecap:square;stroke-width:0.5;"/>
     </g>
     <g id="line2d_24">
      <g>
       <use style="stroke:#000000;stroke-width:0.8;" x="166.5" xlink:href="#m682db4d67d" y="249.843525"/>
      </g>
     </g>
     <g id="text_25">
      <!-- 3 -->
      <g transform="translate(153.1375 253.642744)scale(0.1 -0.1)">
       <use xlink:href="#DejaVuSans-33"/>
      </g>
     </g>
    </g>
    <g id="ytick_5">
     <g id="line2d_25">
      <path clip-path="url(#pc5ded47f4b)" d="M 166.5 139.312723 
L 865.8 139.312723 
" style="fill:none;stroke:#b0b0b0;stroke-linecap:square;stroke-width:0.5;"/>
     </g>
     <g id="line2d_26">
      <g>
       <use style="stroke:#000000;stroke-width:0.8;" x="166.5" xlink:href="#m682db4d67d" y="139.312723"/>
      </g>
     </g>
     <g id="text_26">
      <!-- 4 -->
      <g transform="translate(153.1375 143.111942)scale(0.1 -0.1)">
       <use xlink:href="#DejaVuSans-34"/>
      </g>
     </g>
    </g>
    <g id="text_27">
     <!-- Weighted Robinson-Foulds metric -->
     <defs>
      <path d="M 3.328125 72.90625 
L 13.28125 72.90625 
L 28.609375 11.28125 
L 43.890625 72.90625 
L 54.984375 72.90625 
L 70.3125 11.28125 
L 85.59375 72.90625 
L 95.609375 72.90625 
L 77.296875 0 
L 64.890625 0 
L 49.515625 63.28125 
L 33.984375 0 
L 21.578125 0 
z
" id="DejaVuSans-57"/>
     </defs>
     <g transform="translate(146.641875 449.048437)rotate(-90)scale(0.12 -0.12)">
      <use xlink:href="#DejaVuSans-57"/>
      <use x="98.798828" xlink:href="#DejaVuSans-65"/>
      <use x="160.322266" xlink:href="#DejaVuSans-69"/>
      <use x="188.105469" xlink:href="#DejaVuSans-67"/>
      <use x="251.582031" xlink:href="#DejaVuSans-68"/>
      <use x="314.960938" xlink:href="#DejaVuSans-74"/>
      <use x="354.169922" xlink:href="#DejaVuSans-65"/>
      <use x="415.693359" xlink:href="#DejaVuSans-64"/>
      <use x="479.169922" xlink:href="#DejaVuSans-20"/>
      <use x="510.957031" xlink:href="#DejaVuSans-52"/>
      <use x="580.376953" xlink:href="#DejaVuSans-6f"/>
      <use x="641.558594" xlink:href="#DejaVuSans-62"/>
      <use x="705.035156" xlink:href="#DejaVuSans-69"/>
      <use x="732.818359" xlink:href="#DejaVuSans-6e"/>
      <use x="796.197266" xlink:href="#DejaVuSans-73"/>
      <use x="848.296875" xlink:href="#DejaVuSans-6f"/>
      <use x="909.478516" xlink:href="#DejaVuSans-6e"/>
      <use x="972.857422" xlink:href="#DejaVuSans-2d"/>
      <use x="1008.941406" xlink:href="#DejaVuSans-46"/>
      <use x="1066.414062" xlink:href="#DejaVuSans-6f"/>
      <use x="1127.595703" xlink:href="#DejaVuSans-75"/>
      <use x="1190.974609" xlink:href="#DejaVuSans-6c"/>
      <use x="1218.757812" xlink:href="#DejaVuSans-64"/>
      <use x="1282.234375" xlink:href="#DejaVuSans-73"/>
      <use x="1334.333984" xlink:href="#DejaVuSans-20"/>
      <use x="1366.121094" xlink:href="#DejaVuSans-6d"/>
      <use x="1463.533203" xlink:href="#DejaVuSans-65"/>
      <use x="1525.056641" xlink:href="#DejaVuSans-74"/>
      <use x="1564.265625" xlink:href="#DejaVuSans-72"/>
      <use x="1605.378906" xlink:href="#DejaVuSans-69"/>
      <use x="1633.162109" xlink:href="#DejaVuSans-63"/>
     </g>
    </g>
   </g>
   <g id="line2d_27">
    <path clip-path="url(#pc5ded47f4b)" d="M 834.013636 114.087273 
" style="fill:none;stroke:#808080;stroke-dasharray:3.7,1.6;stroke-dashoffset:0;"/>
   </g>
   <g id="line2d_28">
    <path clip-path="url(#pc5ded47f4b)" d="M 166.5 114.087273 
L 834.013636 114.087273 
" style="fill:none;stroke:#ff0000;stroke-dasharray:3.7,1.6;stroke-dashoffset:0;"/>
   </g>
   <g id="line2d_29">
    <path clip-path="url(#pc5ded47f4b)" d="M 834.013636 114.087273 
L 834.013636 604.8 
" style="fill:none;stroke:#ff0000;stroke-dasharray:3.7,1.6;stroke-dashoffset:0;"/>
   </g>
   <g id="line2d_30">
    <path clip-path="url(#pc5ded47f4b)" d="M 1333 486.769224 
L 669.494945 -1 
" style="fill:none;stroke:#0a58a2;stroke-dasharray:5.55,2.4;stroke-dashoffset:0;stroke-width:1.5;"/>
   </g>
   <g id="line2d_31">
    <path clip-path="url(#pc5ded47f4b)" d="M 1333 486.769224 
L 669.494945 -1 
" style="fill:none;stroke:#0a58a2;stroke-dasharray:5.55,2.4;stroke-dashoffset:0;stroke-width:1.5;"/>
   </g>
   <g id="line2d_32">
    <path clip-path="url(#pc5ded47f4b)" d="M 1333 483.798156 
L 673.536444 -1 
" style="fill:none;stroke:#0a58a2;stroke-dasharray:5.55,2.4;stroke-dashoffset:0;stroke-width:1.5;"/>
   </g>
   <g id="line2d_33">
    <defs>
     <path d="M 0 3.75 
C 0.994512 3.75 1.948425 3.354876 2.65165 2.65165 
C 3.354876 1.948425 3.75 0.994512 3.75 0 
C 3.75 -0.994512 3.354876 -1.948425 2.65165 -2.65165 
C 1.948425 -3.354876 0.994512 -3.75 0 -3.75 
C -0.994512 -3.75 -1.948425 -3.354876 -2.65165 -2.65165 
C -3.354876 -1.948425 -3.75 -0.994512 -3.75 0 
C -3.75 0.994512 -3.354876 1.948425 -2.65165 2.65165 
C -1.948425 3.354876 -0.994512 3.75 0 3.75 
z
" id="me2aa02ab43" style="stroke:#5b2a49;"/>
    </defs>
    <g clip-path="url(#pc5ded47f4b)">
     <use style="fill:#5b2a49;stroke:#5b2a49;" x="198.286364" xlink:href="#me2aa02ab43" y="581.432727"/>
    </g>
   </g>
   <g id="line2d_34">
    <defs>
     <path d="M 0 7.5 
C 1.989023 7.5 3.896849 6.709753 5.303301 5.303301 
C 6.709753 3.896849 7.5 1.989023 7.5 0 
C 7.5 -1.989023 6.709753 -3.896849 5.303301 -5.303301 
C 3.896849 -6.709753 1.989023 -7.5 0 -7.5 
C -1.989023 -7.5 -3.896849 -6.709753 -5.303301 -5.303301 
C -6.709753 -3.896849 -7.5 -1.989023 -7.5 0 
C -7.5 1.989023 -6.709753 3.896849 -5.303301 5.303301 
C -3.896849 6.709753 -1.989023 7.5 0 7.5 
z
" id="m7187f3efa7" style="stroke:#a91310;"/>
    </defs>
    <g clip-path="url(#pc5ded47f4b)">
     <use style="fill:#a91310;stroke:#a91310;" x="834.013636" xlink:href="#m7187f3efa7" y="120.029409"/>
    </g>
   </g>
   <g id="line2d_35">
    <defs>
     <path d="M -0 7.5 
L 7.5 -7.5 
L -7.5 -7.5 
z
" id="m35daefbd49" style="stroke:#9693b0;stroke-linejoin:miter;"/>
    </defs>
    <g clip-path="url(#pc5ded47f4b)">
     <use style="fill:#9693b0;stroke:#9693b0;stroke-linejoin:miter;" x="834.013636" xlink:href="#m35daefbd49" y="120.029409"/>
    </g>
   </g>
   <g id="line2d_36">
    <defs>
     <path d="M 0 -7.5 
L -7.5 7.5 
L 7.5 7.5 
z
" id="m3ce11a5bb8" style="stroke:#e7afd7;stroke-linejoin:miter;"/>
    </defs>
    <g clip-path="url(#pc5ded47f4b)">
     <use style="fill:#e7afd7;stroke:#e7afd7;stroke-linejoin:miter;" x="834.013636" xlink:href="#m3ce11a5bb8" y="114.087273"/>
    </g>
   </g>
   <g id="line2d_37">
    <defs>
     <path d="M -7.5 -0 
L 7.5 7.5 
L 7.5 -7.5 
z
" id="mdd782b85c1" style="stroke:#fb7f6a;stroke-linejoin:miter;"/>
    </defs>
    <g clip-path="url(#pc5ded47f4b)">
     <use style="fill:#fb7f6a;stroke:#fb7f6a;stroke-linejoin:miter;" x="834.013636" xlink:href="#mdd782b85c1" y="119.859191"/>
    </g>
   </g>
   <g id="patch_15">
    <path d="M 166.5 604.8 
L 166.5 90.72 
" style="fill:none;stroke:#000000;stroke-linecap:square;stroke-linejoin:miter;stroke-width:0.8;"/>
   </g>
   <g id="patch_16">
    <path d="M 865.8 604.8 
L 865.8 90.72 
" style="fill:none;stroke:#000000;stroke-linecap:square;stroke-linejoin:miter;stroke-width:0.8;"/>
   </g>
   <g id="patch_17">
    <path d="M 166.5 604.8 
L 865.8 604.8 
" style="fill:none;stroke:#000000;stroke-linecap:square;stroke-linejoin:miter;stroke-width:0.8;"/>
   </g>
   <g id="patch_18">
    <path d="M 166.5 90.72 
L 865.8 90.72 
" style="fill:none;stroke:#000000;stroke-linecap:square;stroke-linejoin:miter;stroke-width:0.8;"/>
   </g>
   <g id="patch_19">
    <path d="M 824.997561 142.604043 
Q 833.25429 134.347314 841.511018 126.090586 
L 837.586575 122.166143 
Q 843.951467 120.043893 850.316358 117.921642 
Q 848.194107 124.286533 846.071857 130.651425 
L 842.147414 126.726982 
Q 833.890686 134.98371 825.633957 143.240439 
L 824.997561 142.604043 
z
" style="stroke:#000000;stroke-linecap:round;"/>
   </g>
   <g id="text_28">
    <!-- better -->
    <g transform="translate(791.20775 154.022438)scale(0.1 -0.1)">
     <use xlink:href="#DejaVuSans-62"/>
     <use x="63.476562" xlink:href="#DejaVuSans-65"/>
     <use x="125" xlink:href="#DejaVuSans-74"/>
     <use x="164.208984" xlink:href="#DejaVuSans-74"/>
     <use x="203.417969" xlink:href="#DejaVuSans-65"/>
     <use x="264.941406" xlink:href="#DejaVuSans-72"/>
    </g>
   </g>
   <g id="patch_20">
    <path d="M 187.074138 567.011802 
Q 192.065713 573.43186 196.371037 578.969275 
" style="fill:none;stroke:#000000;stroke-linecap:round;"/>
    <path d="M 195.757634 575.899465 
L 196.371037 578.969275 
L 193.547147 577.618112 
" style="fill:none;stroke:#000000;stroke-linecap:round;"/>
   </g>
   <g id="text_29">
    <g id="patch_21">
     <path d="M 155.824801 564.932727 
L 198.286364 564.932727 
Q 201.786364 564.932727 201.786364 561.432727 
L 201.786364 546.819571 
Q 201.786364 543.319571 198.286364 543.319571 
L 155.824801 543.319571 
Q 152.324801 543.319571 152.324801 546.819571 
L 152.324801 561.432727 
Q 152.324801 564.932727 155.824801 564.932727 
z
" style="fill:#ffff00;opacity:0.15;stroke:#000000;stroke-linejoin:miter;"/>
    </g>
    <!-- participant0 -->
    <g transform="translate(155.824801 552.138477)scale(0.07 -0.07)">
     <use xlink:href="#DejaVuSans-70"/>
     <use x="63.476562" xlink:href="#DejaVuSans-61"/>
     <use x="124.755859" xlink:href="#DejaVuSans-72"/>
     <use x="165.869141" xlink:href="#DejaVuSans-74"/>
     <use x="205.078125" xlink:href="#DejaVuSans-69"/>
     <use x="232.861328" xlink:href="#DejaVuSans-63"/>
     <use x="287.841797" xlink:href="#DejaVuSans-69"/>
     <use x="315.625" xlink:href="#DejaVuSans-70"/>
     <use x="379.101562" xlink:href="#DejaVuSans-61"/>
     <use x="440.380859" xlink:href="#DejaVuSans-6e"/>
     <use x="503.759766" xlink:href="#DejaVuSans-74"/>
     <use x="542.96875" xlink:href="#DejaVuSans-30"/>
    </g>
    <!-- score = 0.0 -->
    <defs>
     <path d="M 10.59375 45.40625 
L 73.1875 45.40625 
L 73.1875 37.203125 
L 10.59375 37.203125 
z
M 10.59375 25.484375 
L 73.1875 25.484375 
L 73.1875 17.1875 
L 10.59375 17.1875 
z
" id="DejaVuSans-3d"/>
     <path d="M 10.6875 12.40625 
L 21 12.40625 
L 21 0 
L 10.6875 0 
z
" id="DejaVuSans-2e"/>
    </defs>
    <g transform="translate(157.87777 559.976946)scale(0.07 -0.07)">
     <use xlink:href="#DejaVuSans-73"/>
     <use x="52.099609" xlink:href="#DejaVuSans-63"/>
     <use x="107.080078" xlink:href="#DejaVuSans-6f"/>
     <use x="168.261719" xlink:href="#DejaVuSans-72"/>
     <use x="209.34375" xlink:href="#DejaVuSans-65"/>
     <use x="270.867188" xlink:href="#DejaVuSans-20"/>
     <use x="302.654297" xlink:href="#DejaVuSans-3d"/>
     <use x="386.443359" xlink:href="#DejaVuSans-20"/>
     <use x="418.230469" xlink:href="#DejaVuSans-30"/>
     <use x="481.853516" xlink:href="#DejaVuSans-2e"/>
     <use x="513.640625" xlink:href="#DejaVuSans-30"/>
    </g>
   </g>
   <g id="patch_22">
    <path d="M 820.901465 105.508853 
Q 826.786896 112.026441 831.923025 117.714244 
" style="fill:none;stroke:#000000;stroke-linecap:round;"/>
    <path d="M 831.085529 114.697855 
L 831.923025 117.714244 
L 829.007416 116.574406 
" style="fill:none;stroke:#000000;stroke-linecap:round;"/>
   </g>
   <g id="text_30">
    <g id="patch_23">
     <path d="M 784.697543 103.529409 
L 834.013636 103.529409 
Q 837.513636 103.529409 837.513636 100.029409 
L 837.513636 85.416252 
Q 837.513636 81.916252 834.013636 81.916252 
L 784.697543 81.916252 
Q 781.197543 81.916252 781.197543 85.416252 
L 781.197543 100.029409 
Q 781.197543 103.529409 784.697543 103.529409 
z
" style="fill:#ffff00;opacity:0.15;stroke:#000000;stroke-linejoin:miter;"/>
    </g>
    <!-- participant1 -->
    <g transform="translate(791.552074 90.735159)scale(0.07 -0.07)">
     <use xlink:href="#DejaVuSans-70"/>
     <use x="63.476562" xlink:href="#DejaVuSans-61"/>
     <use x="124.755859" xlink:href="#DejaVuSans-72"/>
     <use x="165.869141" xlink:href="#DejaVuSans-74"/>
     <use x="205.078125" xlink:href="#DejaVuSans-69"/>
     <use x="232.861328" xlink:href="#DejaVuSans-63"/>
     <use x="287.841797" xlink:href="#DejaVuSans-69"/>
     <use x="315.625" xlink:href="#DejaVuSans-70"/>
     <use x="379.101562" xlink:href="#DejaVuSans-61"/>
     <use x="440.380859" xlink:href="#DejaVuSans-6e"/>
     <use x="503.759766" xlink:href="#DejaVuSans-74"/>
     <use x="542.96875" xlink:href="#DejaVuSans-31"/>
    </g>
    <!-- score = 1.987 -->
    <defs>
     <path d="M 10.984375 1.515625 
L 10.984375 10.5 
Q 14.703125 8.734375 18.5 7.8125 
Q 22.3125 6.890625 25.984375 6.890625 
Q 35.75 6.890625 40.890625 13.453125 
Q 46.046875 20.015625 46.78125 33.40625 
Q 43.953125 29.203125 39.59375 26.953125 
Q 35.25 24.703125 29.984375 24.703125 
Q 19.046875 24.703125 12.671875 31.3125 
Q 6.296875 37.9375 6.296875 49.421875 
Q 6.296875 60.640625 12.9375 67.421875 
Q 19.578125 74.21875 30.609375 74.21875 
Q 43.265625 74.21875 49.921875 64.515625 
Q 56.59375 54.828125 56.59375 36.375 
Q 56.59375 19.140625 48.40625 8.859375 
Q 40.234375 -1.421875 26.421875 -1.421875 
Q 22.703125 -1.421875 18.890625 -0.6875 
Q 15.09375 0.046875 10.984375 1.515625 
z
M 30.609375 32.421875 
Q 37.25 32.421875 41.125 36.953125 
Q 45.015625 41.5 45.015625 49.421875 
Q 45.015625 57.28125 41.125 61.84375 
Q 37.25 66.40625 30.609375 66.40625 
Q 23.96875 66.40625 20.09375 61.84375 
Q 16.21875 57.28125 16.21875 49.421875 
Q 16.21875 41.5 20.09375 36.953125 
Q 23.96875 32.421875 30.609375 32.421875 
z
" id="DejaVuSans-39"/>
     <path d="M 31.78125 34.625 
Q 24.75 34.625 20.71875 30.859375 
Q 16.703125 27.09375 16.703125 20.515625 
Q 16.703125 13.921875 20.71875 10.15625 
Q 24.75 6.390625 31.78125 6.390625 
Q 38.8125 6.390625 42.859375 10.171875 
Q 46.921875 13.96875 46.921875 20.515625 
Q 46.921875 27.09375 42.890625 30.859375 
Q 38.875 34.625 31.78125 34.625 
z
M 21.921875 38.8125 
Q 15.578125 40.375 12.03125 44.71875 
Q 8.5 49.078125 8.5 55.328125 
Q 8.5 64.0625 14.71875 69.140625 
Q 20.953125 74.21875 31.78125 74.21875 
Q 42.671875 74.21875 48.875 69.140625 
Q 55.078125 64.0625 55.078125 55.328125 
Q 55.078125 49.078125 51.53125 44.71875 
Q 48 40.375 41.703125 38.8125 
Q 48.828125 37.15625 52.796875 32.3125 
Q 56.78125 27.484375 56.78125 20.515625 
Q 56.78125 9.90625 50.3125 4.234375 
Q 43.84375 -1.421875 31.78125 -1.421875 
Q 19.734375 -1.421875 13.25 4.234375 
Q 6.78125 9.90625 6.78125 20.515625 
Q 6.78125 27.484375 10.78125 32.3125 
Q 14.796875 37.15625 21.921875 38.8125 
z
M 18.3125 54.390625 
Q 18.3125 48.734375 21.84375 45.5625 
Q 25.390625 42.390625 31.78125 42.390625 
Q 38.140625 42.390625 41.71875 45.5625 
Q 45.3125 48.734375 45.3125 54.390625 
Q 45.3125 60.0625 41.71875 63.234375 
Q 38.140625 66.40625 31.78125 66.40625 
Q 25.390625 66.40625 21.84375 63.234375 
Q 18.3125 60.0625 18.3125 54.390625 
z
" id="DejaVuSans-38"/>
    </defs>
    <g transform="translate(784.697543 98.573627)scale(0.07 -0.07)">
     <use xlink:href="#DejaVuSans-73"/>
     <use x="52.099609" xlink:href="#DejaVuSans-63"/>
     <use x="107.080078" xlink:href="#DejaVuSans-6f"/>
     <use x="168.261719" xlink:href="#DejaVuSans-72"/>
     <use x="209.34375" xlink:href="#DejaVuSans-65"/>
     <use x="270.867188" xlink:href="#DejaVuSans-20"/>
     <use x="302.654297" xlink:href="#DejaVuSans-3d"/>
     <use x="386.443359" xlink:href="#DejaVuSans-20"/>
     <use x="418.230469" xlink:href="#DejaVuSans-31"/>
     <use x="481.853516" xlink:href="#DejaVuSans-2e"/>
     <use x="513.640625" xlink:href="#DejaVuSans-39"/>
     <use x="577.263672" xlink:href="#DejaVuSans-38"/>
     <use x="640.886719" xlink:href="#DejaVuSans-37"/>
    </g>
   </g>
   <g id="patch_24">
    <path d="M 820.901465 105.508853 
Q 826.786896 112.026441 831.923025 117.714244 
" style="fill:none;stroke:#000000;stroke-linecap:round;"/>
    <path d="M 831.085529 114.697855 
L 831.923025 117.714244 
L 829.007416 116.574406 
" style="fill:none;stroke:#000000;stroke-linecap:round;"/>
   </g>
   <g id="text_31">
    <g id="patch_25">
     <path d="M 784.697543 103.529409 
L 834.013636 103.529409 
Q 837.513636 103.529409 837.513636 100.029409 
L 837.513636 85.416252 
Q 837.513636 81.916252 834.013636 81.916252 
L 784.697543 81.916252 
Q 781.197543 81.916252 781.197543 85.416252 
L 781.197543 100.029409 
Q 781.197543 103.529409 784.697543 103.529409 
z
" style="fill:#ffff00;opacity:0.15;stroke:#000000;stroke-linejoin:miter;"/>
    </g>
    <!-- participant2 -->
    <g transform="translate(791.552074 90.735159)scale(0.07 -0.07)">
     <use xlink:href="#DejaVuSans-70"/>
     <use x="63.476562" xlink:href="#DejaVuSans-61"/>
     <use x="124.755859" xlink:href="#DejaVuSans-72"/>
     <use x="165.869141" xlink:href="#DejaVuSans-74"/>
     <use x="205.078125" xlink:href="#DejaVuSans-69"/>
     <use x="232.861328" xlink:href="#DejaVuSans-63"/>
     <use x="287.841797" xlink:href="#DejaVuSans-69"/>
     <use x="315.625" xlink:href="#DejaVuSans-70"/>
     <use x="379.101562" xlink:href="#DejaVuSans-61"/>
     <use x="440.380859" xlink:href="#DejaVuSans-6e"/>
     <use x="503.759766" xlink:href="#DejaVuSans-74"/>
     <use x="542.96875" xlink:href="#DejaVuSans-32"/>
    </g>
    <!-- score = 1.987 -->
    <g transform="translate(784.697543 98.573627)scale(0.07 -0.07)">
     <use xlink:href="#DejaVuSans-73"/>
     <use x="52.099609" xlink:href="#DejaVuSans-63"/>
     <use x="107.080078" xlink:href="#DejaVuSans-6f"/>
     <use x="168.261719" xlink:href="#DejaVuSans-72"/>
     <use x="209.34375" xlink:href="#DejaVuSans-65"/>
     <use x="270.867188" xlink:href="#DejaVuSans-20"/>
     <use x="302.654297" xlink:href="#DejaVuSans-3d"/>
     <use x="386.443359" xlink:href="#DejaVuSans-20"/>
     <use x="418.230469" xlink:href="#DejaVuSans-31"/>
     <use x="481.853516" xlink:href="#DejaVuSans-2e"/>
     <use x="513.640625" xlink:href="#DejaVuSans-39"/>
     <use x="577.263672" xlink:href="#DejaVuSans-38"/>
     <use x="640.886719" xlink:href="#DejaVuSans-37"/>
    </g>
   </g>
   <g id="patch_26">
    <path d="M 822.801411 99.666347 
Q 827.792986 106.086405 832.09831 111.623821 
" style="fill:none;stroke:#000000;stroke-linecap:round;"/>
    <path d="M 831.484906 108.55401 
L 832.09831 111.623821 
L 829.274419 110.272657 
" style="fill:none;stroke:#000000;stroke-linecap:round;"/>
   </g>
   <g id="text_32">
    <g id="patch_27">
     <path d="M 791.552074 97.587273 
L 834.013636 97.587273 
Q 837.513636 97.587273 837.513636 94.087273 
L 837.513636 79.474116 
Q 837.513636 75.974116 834.013636 75.974116 
L 791.552074 75.974116 
Q 788.052074 75.974116 788.052074 79.474116 
L 788.052074 94.087273 
Q 788.052074 97.587273 791.552074 97.587273 
z
" style="fill:#ffff00;opacity:0.15;stroke:#000000;stroke-linejoin:miter;"/>
    </g>
    <!-- participant4 -->
    <g transform="translate(791.552074 84.793023)scale(0.07 -0.07)">
     <use xlink:href="#DejaVuSans-70"/>
     <use x="63.476562" xlink:href="#DejaVuSans-61"/>
     <use x="124.755859" xlink:href="#DejaVuSans-72"/>
     <use x="165.869141" xlink:href="#DejaVuSans-74"/>
     <use x="205.078125" xlink:href="#DejaVuSans-69"/>
     <use x="232.861328" xlink:href="#DejaVuSans-63"/>
     <use x="287.841797" xlink:href="#DejaVuSans-69"/>
     <use x="315.625" xlink:href="#DejaVuSans-70"/>
     <use x="379.101562" xlink:href="#DejaVuSans-61"/>
     <use x="440.380859" xlink:href="#DejaVuSans-6e"/>
     <use x="503.759766" xlink:href="#DejaVuSans-74"/>
     <use x="542.96875" xlink:href="#DejaVuSans-34"/>
    </g>
    <!-- score = 2.0 -->
    <g transform="translate(793.605043 92.631491)scale(0.07 -0.07)">
     <use xlink:href="#DejaVuSans-73"/>
     <use x="52.099609" xlink:href="#DejaVuSans-63"/>
     <use x="107.080078" xlink:href="#DejaVuSans-6f"/>
     <use x="168.261719" xlink:href="#DejaVuSans-72"/>
     <use x="209.34375" xlink:href="#DejaVuSans-65"/>
     <use x="270.867188" xlink:href="#DejaVuSans-20"/>
     <use x="302.654297" xlink:href="#DejaVuSans-3d"/>
     <use x="386.443359" xlink:href="#DejaVuSans-20"/>
     <use x="418.230469" xlink:href="#DejaVuSans-32"/>
     <use x="481.853516" xlink:href="#DejaVuSans-2e"/>
     <use x="513.640625" xlink:href="#DejaVuSans-30"/>
    </g>
   </g>
   <g id="patch_28">
    <path d="M 820.901465 105.338636 
Q 826.786896 111.856224 831.923025 117.544026 
" style="fill:none;stroke:#000000;stroke-linecap:round;"/>
    <path d="M 831.085529 114.527637 
L 831.923025 117.544026 
L 829.007416 116.404189 
" style="fill:none;stroke:#000000;stroke-linecap:round;"/>
   </g>
   <g id="text_33">
    <g id="patch_29">
     <path d="M 784.697543 103.359191 
L 834.013636 103.359191 
Q 837.513636 103.359191 837.513636 99.859191 
L 837.513636 85.246035 
Q 837.513636 81.746035 834.013636 81.746035 
L 784.697543 81.746035 
Q 781.197543 81.746035 781.197543 85.246035 
L 781.197543 99.859191 
Q 781.197543 103.359191 784.697543 103.359191 
z
" style="fill:#ffff00;opacity:0.15;stroke:#000000;stroke-linejoin:miter;"/>
    </g>
    <!-- participant3 -->
    <g transform="translate(791.552074 90.564941)scale(0.07 -0.07)">
     <use xlink:href="#DejaVuSans-70"/>
     <use x="63.476562" xlink:href="#DejaVuSans-61"/>
     <use x="124.755859" xlink:href="#DejaVuSans-72"/>
     <use x="165.869141" xlink:href="#DejaVuSans-74"/>
     <use x="205.078125" xlink:href="#DejaVuSans-69"/>
     <use x="232.861328" xlink:href="#DejaVuSans-63"/>
     <use x="287.841797" xlink:href="#DejaVuSans-69"/>
     <use x="315.625" xlink:href="#DejaVuSans-70"/>
     <use x="379.101562" xlink:href="#DejaVuSans-61"/>
     <use x="440.380859" xlink:href="#DejaVuSans-6e"/>
     <use x="503.759766" xlink:href="#DejaVuSans-74"/>
     <use x="542.96875" xlink:href="#DejaVuSans-33"/>
    </g>
    <!-- score = 1.988 -->
    <g transform="translate(784.697543 98.40341)scale(0.07 -0.07)">
     <use xlink:href="#DejaVuSans-73"/>
     <use x="52.099609" xlink:href="#DejaVuSans-63"/>
     <use x="107.080078" xlink:href="#DejaVuSans-6f"/>
     <use x="168.261719" xlink:href="#DejaVuSans-72"/>
     <use x="209.34375" xlink:href="#DejaVuSans-65"/>
     <use x="270.867188" xlink:href="#DejaVuSans-20"/>
     <use x="302.654297" xlink:href="#DejaVuSans-3d"/>
     <use x="386.443359" xlink:href="#DejaVuSans-20"/>
     <use x="418.230469" xlink:href="#DejaVuSans-31"/>
     <use x="481.853516" xlink:href="#DejaVuSans-2e"/>
     <use x="513.640625" xlink:href="#DejaVuSans-39"/>
     <use x="577.263672" xlink:href="#DejaVuSans-38"/>
     <use x="640.886719" xlink:href="#DejaVuSans-38"/>
    </g>
   </g>
   <g id="text_34">
    <!-- Outbreak investigation benchmark -->
    <defs>
     <path d="M 42.484375 60.59375 
Q 33.890625 60.59375 29.15625 54.25 
Q 24.421875 47.90625 24.421875 36.375 
Q 24.421875 24.90625 29.15625 18.546875 
Q 33.890625 12.203125 42.484375 12.203125 
Q 51.125 12.203125 55.859375 18.546875 
Q 60.59375 24.90625 60.59375 36.375 
Q 60.59375 47.90625 55.859375 54.25 
Q 51.125 60.59375 42.484375 60.59375 
z
M 42.484375 74.21875 
Q 60.0625 74.21875 70.015625 64.15625 
Q 79.984375 54.109375 79.984375 36.375 
Q 79.984375 18.703125 70.015625 8.640625 
Q 60.0625 -1.421875 42.484375 -1.421875 
Q 24.953125 -1.421875 14.96875 8.640625 
Q 4.984375 18.703125 4.984375 36.375 
Q 4.984375 54.109375 14.96875 64.15625 
Q 24.953125 74.21875 42.484375 74.21875 
z
" id="DejaVuSans-Bold-4f"/>
     <path d="M 7.8125 21.296875 
L 7.8125 54.6875 
L 25.390625 54.6875 
L 25.390625 49.21875 
Q 25.390625 44.78125 25.34375 38.0625 
Q 25.296875 31.34375 25.296875 29.109375 
Q 25.296875 22.515625 25.640625 19.609375 
Q 25.984375 16.703125 26.8125 15.375 
Q 27.875 13.671875 29.609375 12.734375 
Q 31.34375 11.8125 33.59375 11.8125 
Q 39.0625 11.8125 42.1875 16.015625 
Q 45.3125 20.21875 45.3125 27.6875 
L 45.3125 54.6875 
L 62.796875 54.6875 
L 62.796875 0 
L 45.3125 0 
L 45.3125 7.90625 
Q 41.359375 3.125 36.9375 0.84375 
Q 32.515625 -1.421875 27.203125 -1.421875 
Q 17.71875 -1.421875 12.765625 4.390625 
Q 7.8125 10.203125 7.8125 21.296875 
z
" id="DejaVuSans-Bold-75"/>
     <path d="M 27.484375 70.21875 
L 27.484375 54.6875 
L 45.515625 54.6875 
L 45.515625 42.1875 
L 27.484375 42.1875 
L 27.484375 19 
Q 27.484375 15.1875 29 13.84375 
Q 30.515625 12.5 35.015625 12.5 
L 44 12.5 
L 44 0 
L 29 0 
Q 18.65625 0 14.328125 4.3125 
Q 10.015625 8.640625 10.015625 19 
L 10.015625 42.1875 
L 1.3125 42.1875 
L 1.3125 54.6875 
L 10.015625 54.6875 
L 10.015625 70.21875 
z
" id="DejaVuSans-Bold-74"/>
     <path d="M 37.5 11.28125 
Q 43.109375 11.28125 46.0625 15.375 
Q 49.03125 19.484375 49.03125 27.296875 
Q 49.03125 35.109375 46.0625 39.203125 
Q 43.109375 43.3125 37.5 43.3125 
Q 31.890625 43.3125 28.875 39.1875 
Q 25.875 35.0625 25.875 27.296875 
Q 25.875 19.53125 28.875 15.40625 
Q 31.890625 11.28125 37.5 11.28125 
z
M 25.875 46.6875 
Q 29.5 51.46875 33.890625 53.734375 
Q 38.28125 56 44 56 
Q 54.109375 56 60.59375 47.96875 
Q 67.09375 39.9375 67.09375 27.296875 
Q 67.09375 14.65625 60.59375 6.609375 
Q 54.109375 -1.421875 44 -1.421875 
Q 38.28125 -1.421875 33.890625 0.84375 
Q 29.5 3.125 25.875 7.90625 
L 25.875 0 
L 8.40625 0 
L 8.40625 75.984375 
L 25.875 75.984375 
z
" id="DejaVuSans-Bold-62"/>
     <path d="M 49.03125 39.796875 
Q 46.734375 40.875 44.453125 41.375 
Q 42.1875 41.890625 39.890625 41.890625 
Q 33.15625 41.890625 29.515625 37.5625 
Q 25.875 33.25 25.875 25.203125 
L 25.875 0 
L 8.40625 0 
L 8.40625 54.6875 
L 25.875 54.6875 
L 25.875 45.703125 
Q 29.25 51.078125 33.609375 53.53125 
Q 37.984375 56 44.09375 56 
Q 44.96875 56 45.984375 55.921875 
Q 47.015625 55.859375 48.96875 55.609375 
z
" id="DejaVuSans-Bold-72"/>
     <path d="M 62.984375 27.484375 
L 62.984375 22.515625 
L 22.125 22.515625 
Q 22.75 16.359375 26.5625 13.28125 
Q 30.375 10.203125 37.203125 10.203125 
Q 42.71875 10.203125 48.5 11.84375 
Q 54.296875 13.484375 60.40625 16.796875 
L 60.40625 3.328125 
Q 54.203125 0.984375 48 -0.21875 
Q 41.796875 -1.421875 35.59375 -1.421875 
Q 20.75 -1.421875 12.515625 6.125 
Q 4.296875 13.671875 4.296875 27.296875 
Q 4.296875 40.671875 12.375 48.328125 
Q 20.453125 56 34.625 56 
Q 47.515625 56 55.25 48.234375 
Q 62.984375 40.484375 62.984375 27.484375 
z
M 45.015625 33.296875 
Q 45.015625 38.28125 42.109375 41.328125 
Q 39.203125 44.390625 34.515625 44.390625 
Q 29.4375 44.390625 26.265625 41.53125 
Q 23.09375 38.671875 22.3125 33.296875 
z
" id="DejaVuSans-Bold-65"/>
     <path d="M 32.90625 24.609375 
Q 27.4375 24.609375 24.671875 22.75 
Q 21.921875 20.90625 21.921875 17.28125 
Q 21.921875 13.96875 24.140625 12.078125 
Q 26.375 10.203125 30.328125 10.203125 
Q 35.25 10.203125 38.625 13.734375 
Q 42 17.28125 42 22.609375 
L 42 24.609375 
z
M 59.625 31.203125 
L 59.625 0 
L 42 0 
L 42 8.109375 
Q 38.484375 3.125 34.078125 0.84375 
Q 29.6875 -1.421875 23.390625 -1.421875 
Q 14.890625 -1.421875 9.59375 3.53125 
Q 4.296875 8.5 4.296875 16.40625 
Q 4.296875 26.03125 10.90625 30.515625 
Q 17.53125 35.015625 31.6875 35.015625 
L 42 35.015625 
L 42 36.375 
Q 42 40.53125 38.71875 42.453125 
Q 35.453125 44.390625 28.515625 44.390625 
Q 22.90625 44.390625 18.0625 43.265625 
Q 13.234375 42.140625 9.078125 39.890625 
L 9.078125 53.21875 
Q 14.703125 54.59375 20.359375 55.296875 
Q 26.03125 56 31.6875 56 
Q 46.484375 56 53.046875 50.171875 
Q 59.625 44.34375 59.625 31.203125 
z
" id="DejaVuSans-Bold-61"/>
     <path d="M 8.40625 75.984375 
L 25.875 75.984375 
L 25.875 34.625 
L 46 54.6875 
L 66.3125 54.6875 
L 39.59375 29.59375 
L 68.40625 0 
L 47.21875 0 
L 25.875 22.796875 
L 25.875 0 
L 8.40625 0 
z
" id="DejaVuSans-Bold-6b"/>
     <path id="DejaVuSans-Bold-20"/>
     <path d="M 8.40625 54.6875 
L 25.875 54.6875 
L 25.875 0 
L 8.40625 0 
z
M 8.40625 75.984375 
L 25.875 75.984375 
L 25.875 61.71875 
L 8.40625 61.71875 
z
" id="DejaVuSans-Bold-69"/>
     <path d="M 63.375 33.296875 
L 63.375 0 
L 45.796875 0 
L 45.796875 5.421875 
L 45.796875 25.484375 
Q 45.796875 32.5625 45.484375 35.25 
Q 45.171875 37.9375 44.390625 39.203125 
Q 43.359375 40.921875 41.59375 41.875 
Q 39.84375 42.828125 37.59375 42.828125 
Q 32.125 42.828125 29 38.59375 
Q 25.875 34.375 25.875 26.90625 
L 25.875 0 
L 8.40625 0 
L 8.40625 54.6875 
L 25.875 54.6875 
L 25.875 46.6875 
Q 29.828125 51.46875 34.265625 53.734375 
Q 38.71875 56 44.09375 56 
Q 53.5625 56 58.46875 50.1875 
Q 63.375 44.390625 63.375 33.296875 
z
" id="DejaVuSans-Bold-6e"/>
     <path d="M 1.515625 54.6875 
L 19 54.6875 
L 32.625 16.890625 
L 46.1875 54.6875 
L 63.71875 54.6875 
L 42.1875 0 
L 23 0 
z
" id="DejaVuSans-Bold-76"/>
     <path d="M 51.125 52.984375 
L 51.125 39.703125 
Q 45.515625 42.046875 40.28125 43.21875 
Q 35.0625 44.390625 30.421875 44.390625 
Q 25.4375 44.390625 23.015625 43.140625 
Q 20.609375 41.890625 20.609375 39.3125 
Q 20.609375 37.203125 22.4375 36.078125 
Q 24.265625 34.96875 29 34.421875 
L 32.078125 33.984375 
Q 45.515625 32.28125 50.140625 28.375 
Q 54.78125 24.46875 54.78125 16.109375 
Q 54.78125 7.375 48.328125 2.96875 
Q 41.890625 -1.421875 29.109375 -1.421875 
Q 23.6875 -1.421875 17.890625 -0.5625 
Q 12.109375 0.296875 6 2 
L 6 15.28125 
Q 11.234375 12.75 16.71875 11.46875 
Q 22.21875 10.203125 27.875 10.203125 
Q 33.015625 10.203125 35.59375 11.609375 
Q 38.1875 13.03125 38.1875 15.828125 
Q 38.1875 18.171875 36.40625 19.3125 
Q 34.625 20.453125 29.296875 21.09375 
L 26.21875 21.484375 
Q 14.546875 22.953125 9.859375 26.90625 
Q 5.171875 30.859375 5.171875 38.921875 
Q 5.171875 47.609375 11.125 51.796875 
Q 17.09375 56 29.390625 56 
Q 34.234375 56 39.546875 55.265625 
Q 44.875 54.546875 51.125 52.984375 
z
" id="DejaVuSans-Bold-73"/>
     <path d="M 45.609375 9.28125 
Q 42 4.5 37.640625 2.25 
Q 33.296875 0 27.59375 0 
Q 17.578125 0 11.03125 7.875 
Q 4.5 15.765625 4.5 27.984375 
Q 4.5 40.234375 11.03125 48.0625 
Q 17.578125 55.90625 27.59375 55.90625 
Q 33.296875 55.90625 37.640625 53.65625 
Q 42 51.421875 45.609375 46.578125 
L 45.609375 54.6875 
L 63.1875 54.6875 
L 63.1875 5.515625 
Q 63.1875 -7.671875 54.859375 -14.625 
Q 46.53125 -21.578125 30.71875 -21.578125 
Q 25.59375 -21.578125 20.796875 -20.796875 
Q 16.015625 -20.015625 11.1875 -18.40625 
L 11.1875 -4.78125 
Q 15.765625 -7.421875 20.15625 -8.71875 
Q 24.5625 -10.015625 29 -10.015625 
Q 37.59375 -10.015625 41.59375 -6.25 
Q 45.609375 -2.484375 45.609375 5.515625 
z
M 34.078125 43.3125 
Q 28.65625 43.3125 25.625 39.296875 
Q 22.609375 35.296875 22.609375 27.984375 
Q 22.609375 20.453125 25.53125 16.578125 
Q 28.46875 12.703125 34.078125 12.703125 
Q 39.546875 12.703125 42.578125 16.703125 
Q 45.609375 20.703125 45.609375 27.984375 
Q 45.609375 35.296875 42.578125 39.296875 
Q 39.546875 43.3125 34.078125 43.3125 
z
" id="DejaVuSans-Bold-67"/>
     <path d="M 34.421875 43.5 
Q 28.609375 43.5 25.5625 39.328125 
Q 22.515625 35.15625 22.515625 27.296875 
Q 22.515625 19.4375 25.5625 15.25 
Q 28.609375 11.078125 34.421875 11.078125 
Q 40.140625 11.078125 43.15625 15.25 
Q 46.1875 19.4375 46.1875 27.296875 
Q 46.1875 35.15625 43.15625 39.328125 
Q 40.140625 43.5 34.421875 43.5 
z
M 34.421875 56 
Q 48.53125 56 56.46875 48.375 
Q 64.40625 40.765625 64.40625 27.296875 
Q 64.40625 13.8125 56.46875 6.1875 
Q 48.53125 -1.421875 34.421875 -1.421875 
Q 20.265625 -1.421875 12.28125 6.1875 
Q 4.296875 13.8125 4.296875 27.296875 
Q 4.296875 40.765625 12.28125 48.375 
Q 20.265625 56 34.421875 56 
z
" id="DejaVuSans-Bold-6f"/>
     <path d="M 52.59375 52.984375 
L 52.59375 38.71875 
Q 49.03125 41.15625 45.4375 42.328125 
Q 41.84375 43.5 37.984375 43.5 
Q 30.671875 43.5 26.59375 39.234375 
Q 22.515625 34.96875 22.515625 27.296875 
Q 22.515625 19.625 26.59375 15.34375 
Q 30.671875 11.078125 37.984375 11.078125 
Q 42.09375 11.078125 45.78125 12.296875 
Q 49.46875 13.53125 52.59375 15.921875 
L 52.59375 1.609375 
Q 48.484375 0.09375 44.265625 -0.65625 
Q 40.046875 -1.421875 35.796875 -1.421875 
Q 21 -1.421875 12.640625 6.171875 
Q 4.296875 13.765625 4.296875 27.296875 
Q 4.296875 40.828125 12.640625 48.40625 
Q 21 56 35.796875 56 
Q 40.09375 56 44.265625 55.25 
Q 48.4375 54.5 52.59375 52.984375 
z
" id="DejaVuSans-Bold-63"/>
     <path d="M 63.375 33.296875 
L 63.375 0 
L 45.796875 0 
L 45.796875 5.421875 
L 45.796875 25.390625 
Q 45.796875 32.5625 45.484375 35.25 
Q 45.171875 37.9375 44.390625 39.203125 
Q 43.359375 40.921875 41.59375 41.875 
Q 39.84375 42.828125 37.59375 42.828125 
Q 32.125 42.828125 29 38.59375 
Q 25.875 34.375 25.875 26.90625 
L 25.875 0 
L 8.40625 0 
L 8.40625 75.984375 
L 25.875 75.984375 
L 25.875 46.6875 
Q 29.828125 51.46875 34.265625 53.734375 
Q 38.71875 56 44.09375 56 
Q 53.5625 56 58.46875 50.1875 
Q 63.375 44.390625 63.375 33.296875 
z
" id="DejaVuSans-Bold-68"/>
     <path d="M 59.078125 45.609375 
Q 62.40625 50.6875 66.96875 53.34375 
Q 71.53125 56 77 56 
Q 86.421875 56 91.359375 50.1875 
Q 96.296875 44.390625 96.296875 33.296875 
L 96.296875 0 
L 78.71875 0 
L 78.71875 28.515625 
Q 78.765625 29.15625 78.78125 29.828125 
Q 78.8125 30.515625 78.8125 31.78125 
Q 78.8125 37.59375 77.09375 40.203125 
Q 75.390625 42.828125 71.578125 42.828125 
Q 66.609375 42.828125 63.890625 38.71875 
Q 61.1875 34.625 61.078125 26.859375 
L 61.078125 0 
L 43.5 0 
L 43.5 28.515625 
Q 43.5 37.59375 41.9375 40.203125 
Q 40.375 42.828125 36.375 42.828125 
Q 31.34375 42.828125 28.609375 38.703125 
Q 25.875 34.578125 25.875 26.90625 
L 25.875 0 
L 8.296875 0 
L 8.296875 54.6875 
L 25.875 54.6875 
L 25.875 46.6875 
Q 29.109375 51.3125 33.28125 53.65625 
Q 37.453125 56 42.484375 56 
Q 48.140625 56 52.484375 53.265625 
Q 56.84375 50.53125 59.078125 45.609375 
z
" id="DejaVuSans-Bold-6d"/>
    </defs>
    <g transform="translate(339.21 84.72)scale(0.18 -0.18)">
     <use xlink:href="#DejaVuSans-Bold-4f"/>
     <use x="85.009766" xlink:href="#DejaVuSans-Bold-75"/>
     <use x="156.201172" xlink:href="#DejaVuSans-Bold-74"/>
     <use x="204.003906" xlink:href="#DejaVuSans-Bold-62"/>
     <use x="275.585938" xlink:href="#DejaVuSans-Bold-72"/>
     <use x="324.902344" xlink:href="#DejaVuSans-Bold-65"/>
     <use x="392.724609" xlink:href="#DejaVuSans-Bold-61"/>
     <use x="460.205078" xlink:href="#DejaVuSans-Bold-6b"/>
     <use x="526.708984" xlink:href="#DejaVuSans-Bold-20"/>
     <use x="561.523438" xlink:href="#DejaVuSans-Bold-69"/>
     <use x="595.800781" xlink:href="#DejaVuSans-Bold-6e"/>
     <use x="666.992188" xlink:href="#DejaVuSans-Bold-76"/>
     <use x="732.177734" xlink:href="#DejaVuSans-Bold-65"/>
     <use x="800" xlink:href="#DejaVuSans-Bold-73"/>
     <use x="859.521484" xlink:href="#DejaVuSans-Bold-74"/>
     <use x="907.324219" xlink:href="#DejaVuSans-Bold-69"/>
     <use x="941.601562" xlink:href="#DejaVuSans-Bold-67"/>
     <use x="1013.183594" xlink:href="#DejaVuSans-Bold-61"/>
     <use x="1080.664062" xlink:href="#DejaVuSans-Bold-74"/>
     <use x="1128.466797" xlink:href="#DejaVuSans-Bold-69"/>
     <use x="1162.744141" xlink:href="#DejaVuSans-Bold-6f"/>
     <use x="1231.445312" xlink:href="#DejaVuSans-Bold-6e"/>
     <use x="1302.636719" xlink:href="#DejaVuSans-Bold-20"/>
     <use x="1337.451172" xlink:href="#DejaVuSans-Bold-62"/>
     <use x="1409.033203" xlink:href="#DejaVuSans-Bold-65"/>
     <use x="1476.855469" xlink:href="#DejaVuSans-Bold-6e"/>
     <use x="1548.046875" xlink:href="#DejaVuSans-Bold-63"/>
     <use x="1607.324219" xlink:href="#DejaVuSans-Bold-68"/>
     <use x="1678.515625" xlink:href="#DejaVuSans-Bold-6d"/>
     <use x="1782.714844" xlink:href="#DejaVuSans-Bold-61"/>
     <use x="1850.195312" xlink:href="#DejaVuSans-Bold-72"/>
     <use x="1899.511719" xlink:href="#DejaVuSans-Bold-6b"/>
    </g>
   </g>
   <g id="legend_1">
    <g id="patch_30">
     <path d="M 201.771875 695.70335 
L 834.528125 695.70335 
Q 836.928125 695.70335 836.928125 693.30335 
L 836.928125 676.8896 
Q 836.928125 674.4896 834.528125 674.4896 
L 201.771875 674.4896 
Q 199.371875 674.4896 199.371875 676.8896 
L 199.371875 693.30335 
Q 199.371875 695.70335 201.771875 695.70335 
z
" style="fill:#4c4c4c;opacity:0.5;stroke:#4c4c4c;stroke-linejoin:miter;"/>
    </g>
    <g id="patch_31">
     <path d="M 199.771875 693.70335 
L 832.528125 693.70335 
Q 834.928125 693.70335 834.928125 691.30335 
L 834.928125 674.8896 
Q 834.928125 672.4896 832.528125 672.4896 
L 199.771875 672.4896 
Q 197.371875 672.4896 197.371875 674.8896 
L 197.371875 691.30335 
Q 197.371875 693.70335 199.771875 693.70335 
z
" style="fill:#ffffff;stroke:#cccccc;stroke-linejoin:miter;"/>
    </g>
    <g id="line2d_38"/>
    <g id="line2d_39">
     <defs>
      <path d="M 0 2.625 
C 0.696158 2.625 1.363897 2.348413 1.856155 1.856155 
C 2.348413 1.363897 2.625 0.696158 2.625 0 
C 2.625 -0.696158 2.348413 -1.363897 1.856155 -1.856155 
C 1.363897 -2.348413 0.696158 -2.625 0 -2.625 
C -0.696158 -2.625 -1.363897 -2.348413 -1.856155 -1.856155 
C -2.348413 -1.363897 -2.625 -0.696158 -2.625 0 
C -2.625 0.696158 -2.348413 1.363897 -1.856155 1.856155 
C -1.363897 2.348413 -0.696158 2.625 0 2.625 
z
" id="m357a06f04b" style="stroke:#5b2a49;"/>
     </defs>
     <g>
      <use style="fill:#5b2a49;stroke:#5b2a49;" x="214.171875" xlink:href="#m357a06f04b" y="682.207725"/>
     </g>
    </g>
    <g id="text_35">
     <!-- participant0 -->
     <g transform="translate(235.771875 686.407725)scale(0.12 -0.12)">
      <use xlink:href="#DejaVuSans-70"/>
      <use x="63.476562" xlink:href="#DejaVuSans-61"/>
      <use x="124.755859" xlink:href="#DejaVuSans-72"/>
      <use x="165.869141" xlink:href="#DejaVuSans-74"/>
      <use x="205.078125" xlink:href="#DejaVuSans-69"/>
      <use x="232.861328" xlink:href="#DejaVuSans-63"/>
      <use x="287.841797" xlink:href="#DejaVuSans-69"/>
      <use x="315.625" xlink:href="#DejaVuSans-70"/>
      <use x="379.101562" xlink:href="#DejaVuSans-61"/>
      <use x="440.380859" xlink:href="#DejaVuSans-6e"/>
      <use x="503.759766" xlink:href="#DejaVuSans-74"/>
      <use x="542.96875" xlink:href="#DejaVuSans-30"/>
     </g>
    </g>
    <g id="line2d_40"/>
    <g id="line2d_41">
     <defs>
      <path d="M 0 5.25 
C 1.392316 5.25 2.727794 4.696827 3.712311 3.712311 
C 4.696827 2.727794 5.25 1.392316 5.25 0 
C 5.25 -1.392316 4.696827 -2.727794 3.712311 -3.712311 
C 2.727794 -4.696827 1.392316 -5.25 0 -5.25 
C -1.392316 -5.25 -2.727794 -4.696827 -3.712311 -3.712311 
C -4.696827 -2.727794 -5.25 -1.392316 -5.25 0 
C -5.25 1.392316 -4.696827 2.727794 -3.712311 3.712311 
C -2.727794 4.696827 -1.392316 5.25 0 5.25 
z
" id="m0582094adb" style="stroke:#a91310;"/>
     </defs>
     <g>
      <use style="fill:#a91310;stroke:#a91310;" x="344.563125" xlink:href="#m0582094adb" y="682.207725"/>
     </g>
    </g>
    <g id="text_36">
     <!-- participant1 -->
     <g transform="translate(366.163125 686.407725)scale(0.12 -0.12)">
      <use xlink:href="#DejaVuSans-70"/>
      <use x="63.476562" xlink:href="#DejaVuSans-61"/>
      <use x="124.755859" xlink:href="#DejaVuSans-72"/>
      <use x="165.869141" xlink:href="#DejaVuSans-74"/>
      <use x="205.078125" xlink:href="#DejaVuSans-69"/>
      <use x="232.861328" xlink:href="#DejaVuSans-63"/>
      <use x="287.841797" xlink:href="#DejaVuSans-69"/>
      <use x="315.625" xlink:href="#DejaVuSans-70"/>
      <use x="379.101562" xlink:href="#DejaVuSans-61"/>
      <use x="440.380859" xlink:href="#DejaVuSans-6e"/>
      <use x="503.759766" xlink:href="#DejaVuSans-74"/>
      <use x="542.96875" xlink:href="#DejaVuSans-31"/>
     </g>
    </g>
    <g id="line2d_42"/>
    <g id="line2d_43">
     <defs>
      <path d="M -0 5.25 
L 5.25 -5.25 
L -5.25 -5.25 
z
" id="maa025ce0b6" style="stroke:#9693b0;stroke-linejoin:miter;"/>
     </defs>
     <g>
      <use style="fill:#9693b0;stroke:#9693b0;stroke-linejoin:miter;" x="474.954375" xlink:href="#maa025ce0b6" y="682.207725"/>
     </g>
    </g>
    <g id="text_37">
     <!-- participant2 -->
     <g transform="translate(496.554375 686.407725)scale(0.12 -0.12)">
      <use xlink:href="#DejaVuSans-70"/>
      <use x="63.476562" xlink:href="#DejaVuSans-61"/>
      <use x="124.755859" xlink:href="#DejaVuSans-72"/>
      <use x="165.869141" xlink:href="#DejaVuSans-74"/>
      <use x="205.078125" xlink:href="#DejaVuSans-69"/>
      <use x="232.861328" xlink:href="#DejaVuSans-63"/>
      <use x="287.841797" xlink:href="#DejaVuSans-69"/>
      <use x="315.625" xlink:href="#DejaVuSans-70"/>
      <use x="379.101562" xlink:href="#DejaVuSans-61"/>
      <use x="440.380859" xlink:href="#DejaVuSans-6e"/>
      <use x="503.759766" xlink:href="#DejaVuSans-74"/>
      <use x="542.96875" xlink:href="#DejaVuSans-32"/>
     </g>
    </g>
    <g id="line2d_44"/>
    <g id="line2d_45">
     <defs>
      <path d="M 0 -5.25 
L -5.25 5.25 
L 5.25 5.25 
z
" id="me27784667a" style="stroke:#e7afd7;stroke-linejoin:miter;"/>
     </defs>
     <g>
      <use style="fill:#e7afd7;stroke:#e7afd7;stroke-linejoin:miter;" x="605.345625" xlink:href="#me27784667a" y="682.207725"/>
     </g>
    </g>
    <g id="text_38">
     <!-- participant4 -->
     <g transform="translate(626.945625 686.407725)scale(0.12 -0.12)">
      <use xlink:href="#DejaVuSans-70"/>
      <use x="63.476562" xlink:href="#DejaVuSans-61"/>
      <use x="124.755859" xlink:href="#DejaVuSans-72"/>
      <use x="165.869141" xlink:href="#DejaVuSans-74"/>
      <use x="205.078125" xlink:href="#DejaVuSans-69"/>
      <use x="232.861328" xlink:href="#DejaVuSans-63"/>
      <use x="287.841797" xlink:href="#DejaVuSans-69"/>
      <use x="315.625" xlink:href="#DejaVuSans-70"/>
      <use x="379.101562" xlink:href="#DejaVuSans-61"/>
      <use x="440.380859" xlink:href="#DejaVuSans-6e"/>
      <use x="503.759766" xlink:href="#DejaVuSans-74"/>
      <use x="542.96875" xlink:href="#DejaVuSans-34"/>
     </g>
    </g>
    <g id="line2d_46"/>
    <g id="line2d_47">
     <defs>
      <path d="M -5.25 -0 
L 5.25 5.25 
L 5.25 -5.25 
z
" id="ma5d1392c97" style="stroke:#fb7f6a;stroke-linejoin:miter;"/>
     </defs>
     <g>
      <use style="fill:#fb7f6a;stroke:#fb7f6a;stroke-linejoin:miter;" x="735.736875" xlink:href="#ma5d1392c97" y="682.207725"/>
     </g>
    </g>
    <g id="text_39">
     <!-- participant3 -->
     <g transform="translate(757.336875 686.407725)scale(0.12 -0.12)">
      <use xlink:href="#DejaVuSans-70"/>
      <use x="63.476562" xlink:href="#DejaVuSans-61"/>
      <use x="124.755859" xlink:href="#DejaVuSans-72"/>
      <use x="165.869141" xlink:href="#DejaVuSans-74"/>
      <use x="205.078125" xlink:href="#DejaVuSans-69"/>
      <use x="232.861328" xlink:href="#DejaVuSans-63"/>
      <use x="287.841797" xlink:href="#DejaVuSans-69"/>
      <use x="315.625" xlink:href="#DejaVuSans-70"/>
      <use x="379.101562" xlink:href="#DejaVuSans-61"/>
      <use x="440.380859" xlink:href="#DejaVuSans-6e"/>
      <use x="503.759766" xlink:href="#DejaVuSans-74"/>
      <use x="542.96875" xlink:href="#DejaVuSans-33"/>
     </g>
    </g>
   </g>
  </g>
 </g>
 <defs>
  <clipPath id="pc5ded47f4b">
   <rect height="514.08" width="699.3" x="166.5" y="90.72"/>
  </clipPath>
 </defs>
</svg>
